<mxfile host="app.diagrams.net" modified="2021-05-05T16:16:20.892Z" agent="5.0 (Windows NT 10.0; Win64; x64) AppleWebKit/537.36 (KHTML, like Gecko) Chrome/90.0.4430.93 Safari/537.36" etag="npm4ZTZx9QofXBM4vRqB" version="14.6.10" type="github">
  <diagram id="OvUMPg9O4elX4yKb9CMG" name="Page-1">
    <mxGraphModel dx="1353" dy="1619" grid="1" gridSize="10" guides="1" tooltips="1" connect="1" arrows="1" fold="1" page="1" pageScale="1" pageWidth="827" pageHeight="1169" math="0" shadow="0">
      <root>
        <mxCell id="0" />
        <mxCell id="1" parent="0" />
        <mxCell id="lt1MG_Y_J4A6Yb-XciJY-29" style="edgeStyle=none;rounded=0;orthogonalLoop=1;jettySize=auto;html=1;exitX=0.5;exitY=0;exitDx=0;exitDy=0;endArrow=none;endFill=0;exitPerimeter=0;" edge="1" parent="1" source="Mxa73cPTpktInXATQY8C-1" target="lt1MG_Y_J4A6Yb-XciJY-37">
          <mxGeometry relative="1" as="geometry">
            <mxPoint x="100" y="40" as="targetPoint" />
          </mxGeometry>
        </mxCell>
        <mxCell id="lt1MG_Y_J4A6Yb-XciJY-30" style="edgeStyle=none;rounded=0;orthogonalLoop=1;jettySize=auto;html=1;exitX=0.5;exitY=0;exitDx=0;exitDy=0;endArrow=none;endFill=0;" edge="1" parent="1" source="Mxa73cPTpktInXATQY8C-1">
          <mxGeometry relative="1" as="geometry">
            <mxPoint x="140" y="30" as="targetPoint" />
          </mxGeometry>
        </mxCell>
        <mxCell id="lt1MG_Y_J4A6Yb-XciJY-31" style="edgeStyle=none;rounded=0;orthogonalLoop=1;jettySize=auto;html=1;exitX=0.5;exitY=0;exitDx=0;exitDy=0;endArrow=none;endFill=0;" edge="1" parent="1" source="Mxa73cPTpktInXATQY8C-1" target="lt1MG_Y_J4A6Yb-XciJY-41">
          <mxGeometry relative="1" as="geometry">
            <mxPoint x="200" y="20" as="targetPoint" />
          </mxGeometry>
        </mxCell>
        <mxCell id="lt1MG_Y_J4A6Yb-XciJY-32" style="edgeStyle=none;rounded=0;orthogonalLoop=1;jettySize=auto;html=1;exitX=0.5;exitY=0;exitDx=0;exitDy=0;endArrow=none;endFill=0;" edge="1" parent="1" source="Mxa73cPTpktInXATQY8C-1" target="lt1MG_Y_J4A6Yb-XciJY-35">
          <mxGeometry relative="1" as="geometry">
            <mxPoint x="60" y="60" as="targetPoint" />
          </mxGeometry>
        </mxCell>
        <mxCell id="lt1MG_Y_J4A6Yb-XciJY-33" style="edgeStyle=none;rounded=0;orthogonalLoop=1;jettySize=auto;html=1;exitX=0.5;exitY=0;exitDx=0;exitDy=0;endArrow=none;endFill=0;" edge="1" parent="1" source="Mxa73cPTpktInXATQY8C-1" target="lt1MG_Y_J4A6Yb-XciJY-43">
          <mxGeometry relative="1" as="geometry">
            <mxPoint x="240" y="60" as="targetPoint" />
          </mxGeometry>
        </mxCell>
        <mxCell id="lt1MG_Y_J4A6Yb-XciJY-34" style="edgeStyle=none;rounded=0;orthogonalLoop=1;jettySize=auto;html=1;exitX=0.5;exitY=0;exitDx=0;exitDy=0;endArrow=none;endFill=0;" edge="1" parent="1" source="Mxa73cPTpktInXATQY8C-1" target="lt1MG_Y_J4A6Yb-XciJY-45">
          <mxGeometry relative="1" as="geometry">
            <mxPoint x="320" y="70" as="targetPoint" />
          </mxGeometry>
        </mxCell>
        <mxCell id="Mxa73cPTpktInXATQY8C-1" value="" style="rounded=0;whiteSpace=wrap;html=1;" parent="1" vertex="1">
          <mxGeometry x="100" y="130" width="120" height="60" as="geometry" />
        </mxCell>
        <mxCell id="Mxa73cPTpktInXATQY8C-2" value="Cartel&lt;br&gt;" style="text;html=1;strokeColor=none;fillColor=none;align=center;verticalAlign=middle;whiteSpace=wrap;rounded=0;" parent="1" vertex="1">
          <mxGeometry x="140" y="150" width="40" height="20" as="geometry" />
        </mxCell>
        <mxCell id="Mxa73cPTpktInXATQY8C-3" value="" style="rhombus;whiteSpace=wrap;html=1;" parent="1" vertex="1">
          <mxGeometry x="360" y="130" width="70" height="60" as="geometry" />
        </mxCell>
        <mxCell id="Mxa73cPTpktInXATQY8C-4" value="tiene&lt;br&gt;" style="text;html=1;strokeColor=none;fillColor=none;align=center;verticalAlign=middle;whiteSpace=wrap;rounded=0;" parent="1" vertex="1">
          <mxGeometry x="374" y="150" width="40" height="20" as="geometry" />
        </mxCell>
        <mxCell id="lt1MG_Y_J4A6Yb-XciJY-48" style="edgeStyle=none;rounded=0;orthogonalLoop=1;jettySize=auto;html=1;exitX=0;exitY=0;exitDx=0;exitDy=0;endArrow=none;endFill=0;" edge="1" parent="1" source="Mxa73cPTpktInXATQY8C-5" target="lt1MG_Y_J4A6Yb-XciJY-61">
          <mxGeometry relative="1" as="geometry">
            <mxPoint x="480" y="30" as="targetPoint" />
          </mxGeometry>
        </mxCell>
        <mxCell id="lt1MG_Y_J4A6Yb-XciJY-50" style="edgeStyle=none;rounded=0;orthogonalLoop=1;jettySize=auto;html=1;exitX=0;exitY=0;exitDx=0;exitDy=0;endArrow=none;endFill=0;" edge="1" parent="1" source="Mxa73cPTpktInXATQY8C-5" target="lt1MG_Y_J4A6Yb-XciJY-57">
          <mxGeometry relative="1" as="geometry">
            <mxPoint x="480" y="100" as="targetPoint" />
          </mxGeometry>
        </mxCell>
        <mxCell id="lt1MG_Y_J4A6Yb-XciJY-51" style="edgeStyle=none;rounded=0;orthogonalLoop=1;jettySize=auto;html=1;exitX=0;exitY=0;exitDx=0;exitDy=0;endArrow=none;endFill=0;" edge="1" parent="1" source="Mxa73cPTpktInXATQY8C-5" target="lt1MG_Y_J4A6Yb-XciJY-55">
          <mxGeometry relative="1" as="geometry">
            <mxPoint x="480" y="130" as="targetPoint" />
          </mxGeometry>
        </mxCell>
        <mxCell id="lt1MG_Y_J4A6Yb-XciJY-52" style="edgeStyle=none;rounded=0;orthogonalLoop=1;jettySize=auto;html=1;exitX=0;exitY=0;exitDx=0;exitDy=0;endArrow=none;endFill=0;" edge="1" parent="1" source="Mxa73cPTpktInXATQY8C-5" target="lt1MG_Y_J4A6Yb-XciJY-63">
          <mxGeometry relative="1" as="geometry">
            <mxPoint x="510" y="-10" as="targetPoint" />
          </mxGeometry>
        </mxCell>
        <mxCell id="lt1MG_Y_J4A6Yb-XciJY-53" style="edgeStyle=none;rounded=0;orthogonalLoop=1;jettySize=auto;html=1;exitX=0;exitY=0;exitDx=0;exitDy=0;endArrow=none;endFill=0;" edge="1" parent="1" source="Mxa73cPTpktInXATQY8C-5" target="lt1MG_Y_J4A6Yb-XciJY-65">
          <mxGeometry relative="1" as="geometry">
            <mxPoint x="540" y="-50" as="targetPoint" />
          </mxGeometry>
        </mxCell>
        <mxCell id="lt1MG_Y_J4A6Yb-XciJY-54" style="edgeStyle=none;rounded=0;orthogonalLoop=1;jettySize=auto;html=1;exitX=0;exitY=0;exitDx=0;exitDy=0;endArrow=none;endFill=0;" edge="1" parent="1" source="Mxa73cPTpktInXATQY8C-5" target="lt1MG_Y_J4A6Yb-XciJY-59">
          <mxGeometry relative="1" as="geometry">
            <mxPoint x="480" y="60" as="targetPoint" />
          </mxGeometry>
        </mxCell>
        <mxCell id="Mxa73cPTpktInXATQY8C-5" value="" style="rounded=0;whiteSpace=wrap;html=1;" parent="1" vertex="1">
          <mxGeometry x="590" y="130" width="120" height="60" as="geometry" />
        </mxCell>
        <mxCell id="Mxa73cPTpktInXATQY8C-6" value="Artista" style="text;html=1;strokeColor=none;fillColor=none;align=center;verticalAlign=middle;whiteSpace=wrap;rounded=0;" parent="1" vertex="1">
          <mxGeometry x="630" y="150" width="40" height="20" as="geometry" />
        </mxCell>
        <mxCell id="lt1MG_Y_J4A6Yb-XciJY-69" style="edgeStyle=none;rounded=0;orthogonalLoop=1;jettySize=auto;html=1;exitX=0.5;exitY=0;exitDx=0;exitDy=0;endArrow=none;endFill=0;" edge="1" parent="1" source="Mxa73cPTpktInXATQY8C-10" target="lt1MG_Y_J4A6Yb-XciJY-73">
          <mxGeometry relative="1" as="geometry">
            <mxPoint x="1000" y="50" as="targetPoint" />
          </mxGeometry>
        </mxCell>
        <mxCell id="lt1MG_Y_J4A6Yb-XciJY-70" style="edgeStyle=none;rounded=0;orthogonalLoop=1;jettySize=auto;html=1;exitX=0.5;exitY=0;exitDx=0;exitDy=0;endArrow=none;endFill=0;" edge="1" parent="1" source="Mxa73cPTpktInXATQY8C-10" target="lt1MG_Y_J4A6Yb-XciJY-75">
          <mxGeometry relative="1" as="geometry">
            <mxPoint x="1040" y="30" as="targetPoint" />
          </mxGeometry>
        </mxCell>
        <mxCell id="lt1MG_Y_J4A6Yb-XciJY-71" style="edgeStyle=none;rounded=0;orthogonalLoop=1;jettySize=auto;html=1;exitX=0.5;exitY=0;exitDx=0;exitDy=0;endArrow=none;endFill=0;" edge="1" parent="1" source="Mxa73cPTpktInXATQY8C-10" target="lt1MG_Y_J4A6Yb-XciJY-77">
          <mxGeometry relative="1" as="geometry">
            <mxPoint x="1090" y="40" as="targetPoint" />
          </mxGeometry>
        </mxCell>
        <mxCell id="lt1MG_Y_J4A6Yb-XciJY-72" style="edgeStyle=none;rounded=0;orthogonalLoop=1;jettySize=auto;html=1;exitX=0.5;exitY=0;exitDx=0;exitDy=0;endArrow=none;endFill=0;" edge="1" parent="1" source="Mxa73cPTpktInXATQY8C-10" target="lt1MG_Y_J4A6Yb-XciJY-79">
          <mxGeometry relative="1" as="geometry">
            <mxPoint x="1140" y="60" as="targetPoint" />
          </mxGeometry>
        </mxCell>
        <mxCell id="Mxa73cPTpktInXATQY8C-10" value="" style="rounded=0;whiteSpace=wrap;html=1;" parent="1" vertex="1">
          <mxGeometry x="1000" y="130" width="120" height="60" as="geometry" />
        </mxCell>
        <mxCell id="Mxa73cPTpktInXATQY8C-11" value="Backstage&lt;br&gt;" style="text;html=1;strokeColor=none;fillColor=none;align=center;verticalAlign=middle;whiteSpace=wrap;rounded=0;" parent="1" vertex="1">
          <mxGeometry x="1040" y="150" width="40" height="20" as="geometry" />
        </mxCell>
        <mxCell id="Mxa73cPTpktInXATQY8C-12" value="" style="rhombus;whiteSpace=wrap;html=1;" parent="1" vertex="1">
          <mxGeometry x="820" y="130" width="70" height="60" as="geometry" />
        </mxCell>
        <mxCell id="Mxa73cPTpktInXATQY8C-13" value="aloja" style="text;html=1;strokeColor=none;fillColor=none;align=center;verticalAlign=middle;whiteSpace=wrap;rounded=0;" parent="1" vertex="1">
          <mxGeometry x="835" y="150" width="40" height="20" as="geometry" />
        </mxCell>
        <mxCell id="lt1MG_Y_J4A6Yb-XciJY-93" style="edgeStyle=none;rounded=0;orthogonalLoop=1;jettySize=auto;html=1;exitX=0;exitY=0.5;exitDx=0;exitDy=0;endArrow=none;endFill=0;" edge="1" parent="1" source="Mxa73cPTpktInXATQY8C-19" target="lt1MG_Y_J4A6Yb-XciJY-106">
          <mxGeometry relative="1" as="geometry">
            <mxPoint x="50" y="400" as="targetPoint" />
          </mxGeometry>
        </mxCell>
        <mxCell id="lt1MG_Y_J4A6Yb-XciJY-94" style="edgeStyle=none;rounded=0;orthogonalLoop=1;jettySize=auto;html=1;exitX=0;exitY=0.5;exitDx=0;exitDy=0;endArrow=none;endFill=0;" edge="1" parent="1" source="Mxa73cPTpktInXATQY8C-19" target="lt1MG_Y_J4A6Yb-XciJY-104">
          <mxGeometry relative="1" as="geometry">
            <mxPoint x="20" y="410" as="targetPoint" />
          </mxGeometry>
        </mxCell>
        <mxCell id="lt1MG_Y_J4A6Yb-XciJY-95" style="edgeStyle=none;rounded=0;orthogonalLoop=1;jettySize=auto;html=1;exitX=0;exitY=0.5;exitDx=0;exitDy=0;endArrow=none;endFill=0;" edge="1" parent="1" source="Mxa73cPTpktInXATQY8C-19" target="lt1MG_Y_J4A6Yb-XciJY-102">
          <mxGeometry relative="1" as="geometry">
            <mxPoint y="440" as="targetPoint" />
          </mxGeometry>
        </mxCell>
        <mxCell id="lt1MG_Y_J4A6Yb-XciJY-96" style="edgeStyle=none;rounded=0;orthogonalLoop=1;jettySize=auto;html=1;exitX=0;exitY=0.5;exitDx=0;exitDy=0;endArrow=none;endFill=0;" edge="1" parent="1" source="Mxa73cPTpktInXATQY8C-19" target="lt1MG_Y_J4A6Yb-XciJY-100">
          <mxGeometry relative="1" as="geometry">
            <mxPoint y="490" as="targetPoint" />
          </mxGeometry>
        </mxCell>
        <mxCell id="lt1MG_Y_J4A6Yb-XciJY-99" style="edgeStyle=none;rounded=0;orthogonalLoop=1;jettySize=auto;html=1;exitX=0;exitY=0.5;exitDx=0;exitDy=0;endArrow=none;endFill=0;" edge="1" parent="1" source="Mxa73cPTpktInXATQY8C-19" target="lt1MG_Y_J4A6Yb-XciJY-108">
          <mxGeometry relative="1" as="geometry">
            <mxPoint x="90" y="380" as="targetPoint" />
          </mxGeometry>
        </mxCell>
        <mxCell id="lt1MG_Y_J4A6Yb-XciJY-119" style="edgeStyle=none;rounded=0;orthogonalLoop=1;jettySize=auto;html=1;exitX=0;exitY=0.5;exitDx=0;exitDy=0;endArrow=none;endFill=0;" edge="1" parent="1" source="Mxa73cPTpktInXATQY8C-19" target="lt1MG_Y_J4A6Yb-XciJY-120">
          <mxGeometry relative="1" as="geometry">
            <mxPoint x="10" y="540" as="targetPoint" />
          </mxGeometry>
        </mxCell>
        <mxCell id="Mxa73cPTpktInXATQY8C-19" value="" style="rounded=0;whiteSpace=wrap;html=1;" parent="1" vertex="1">
          <mxGeometry x="100" y="440" width="120" height="60" as="geometry" />
        </mxCell>
        <mxCell id="Mxa73cPTpktInXATQY8C-20" value="Empresa" style="text;html=1;strokeColor=none;fillColor=none;align=center;verticalAlign=middle;whiteSpace=wrap;rounded=0;" parent="1" vertex="1">
          <mxGeometry x="140" y="460" width="40" height="20" as="geometry" />
        </mxCell>
        <mxCell id="Mxa73cPTpktInXATQY8C-23" value="" style="triangle;whiteSpace=wrap;html=1;direction=south;" parent="1" vertex="1">
          <mxGeometry x="125" y="660" width="70" height="50" as="geometry" />
        </mxCell>
        <mxCell id="Mxa73cPTpktInXATQY8C-24" value="" style="ellipse;whiteSpace=wrap;html=1;aspect=fixed;" parent="1" vertex="1">
          <mxGeometry x="150" y="630" width="20" height="20" as="geometry" />
        </mxCell>
        <mxCell id="lt1MG_Y_J4A6Yb-XciJY-124" style="edgeStyle=none;rounded=0;orthogonalLoop=1;jettySize=auto;html=1;exitX=0.5;exitY=0;exitDx=0;exitDy=0;endArrow=none;endFill=0;" edge="1" parent="1" source="Mxa73cPTpktInXATQY8C-27" target="lt1MG_Y_J4A6Yb-XciJY-131">
          <mxGeometry relative="1" as="geometry">
            <mxPoint x="10" y="600" as="targetPoint" />
          </mxGeometry>
        </mxCell>
        <mxCell id="lt1MG_Y_J4A6Yb-XciJY-125" style="edgeStyle=none;rounded=0;orthogonalLoop=1;jettySize=auto;html=1;exitX=0.5;exitY=0;exitDx=0;exitDy=0;endArrow=none;endFill=0;" edge="1" parent="1" source="Mxa73cPTpktInXATQY8C-27" target="lt1MG_Y_J4A6Yb-XciJY-133">
          <mxGeometry relative="1" as="geometry">
            <mxPoint x="50" y="600" as="targetPoint" />
          </mxGeometry>
        </mxCell>
        <mxCell id="lt1MG_Y_J4A6Yb-XciJY-126" style="edgeStyle=none;rounded=0;orthogonalLoop=1;jettySize=auto;html=1;exitX=0.5;exitY=0;exitDx=0;exitDy=0;endArrow=none;endFill=0;" edge="1" parent="1" source="Mxa73cPTpktInXATQY8C-27" target="lt1MG_Y_J4A6Yb-XciJY-135">
          <mxGeometry relative="1" as="geometry">
            <mxPoint x="70" y="620" as="targetPoint" />
          </mxGeometry>
        </mxCell>
        <mxCell id="lt1MG_Y_J4A6Yb-XciJY-127" style="edgeStyle=none;rounded=0;orthogonalLoop=1;jettySize=auto;html=1;exitX=0.5;exitY=0;exitDx=0;exitDy=0;endArrow=none;endFill=0;" edge="1" parent="1" source="Mxa73cPTpktInXATQY8C-27" target="lt1MG_Y_J4A6Yb-XciJY-128">
          <mxGeometry relative="1" as="geometry">
            <mxPoint x="-20" y="620" as="targetPoint" />
          </mxGeometry>
        </mxCell>
        <mxCell id="Mxa73cPTpktInXATQY8C-27" value="" style="rounded=0;whiteSpace=wrap;html=1;" parent="1" vertex="1">
          <mxGeometry y="637.5" width="70" height="50" as="geometry" />
        </mxCell>
        <mxCell id="Mxa73cPTpktInXATQY8C-28" value="Web" style="text;html=1;strokeColor=none;fillColor=none;align=center;verticalAlign=middle;whiteSpace=wrap;rounded=0;" parent="1" vertex="1">
          <mxGeometry x="10" y="652.5" width="40" height="20" as="geometry" />
        </mxCell>
        <mxCell id="lt1MG_Y_J4A6Yb-XciJY-140" style="edgeStyle=none;rounded=0;orthogonalLoop=1;jettySize=auto;html=1;exitX=0.25;exitY=0;exitDx=0;exitDy=0;endArrow=none;endFill=0;" edge="1" parent="1" source="Mxa73cPTpktInXATQY8C-33" target="lt1MG_Y_J4A6Yb-XciJY-141">
          <mxGeometry relative="1" as="geometry">
            <mxPoint x="130" y="750" as="targetPoint" />
          </mxGeometry>
        </mxCell>
        <mxCell id="Mxa73cPTpktInXATQY8C-33" value="" style="rounded=0;whiteSpace=wrap;html=1;" parent="1" vertex="1">
          <mxGeometry x="110" y="785" width="100" height="50" as="geometry" />
        </mxCell>
        <mxCell id="Mxa73cPTpktInXATQY8C-34" value="Seguridad" style="text;html=1;strokeColor=none;fillColor=none;align=center;verticalAlign=middle;whiteSpace=wrap;rounded=0;" parent="1" vertex="1">
          <mxGeometry x="140" y="800" width="40" height="20" as="geometry" />
        </mxCell>
        <mxCell id="lt1MG_Y_J4A6Yb-XciJY-137" style="edgeStyle=none;rounded=0;orthogonalLoop=1;jettySize=auto;html=1;exitX=0;exitY=0.5;exitDx=0;exitDy=0;endArrow=none;endFill=0;" edge="1" parent="1" source="Mxa73cPTpktInXATQY8C-36" target="lt1MG_Y_J4A6Yb-XciJY-138">
          <mxGeometry relative="1" as="geometry">
            <mxPoint x="-50" y="760" as="targetPoint" />
          </mxGeometry>
        </mxCell>
        <mxCell id="Mxa73cPTpktInXATQY8C-36" value="" style="rounded=0;whiteSpace=wrap;html=1;" parent="1" vertex="1">
          <mxGeometry x="5" y="735" width="90" height="40" as="geometry" />
        </mxCell>
        <mxCell id="Mxa73cPTpktInXATQY8C-37" value="Catering" style="text;html=1;strokeColor=none;fillColor=none;align=center;verticalAlign=middle;whiteSpace=wrap;rounded=0;" parent="1" vertex="1">
          <mxGeometry x="30" y="745" width="40" height="20" as="geometry" />
        </mxCell>
        <mxCell id="lt1MG_Y_J4A6Yb-XciJY-146" style="edgeStyle=none;rounded=0;orthogonalLoop=1;jettySize=auto;html=1;exitX=1;exitY=0;exitDx=0;exitDy=0;endArrow=none;endFill=0;" edge="1" parent="1" source="Mxa73cPTpktInXATQY8C-39" target="lt1MG_Y_J4A6Yb-XciJY-147">
          <mxGeometry relative="1" as="geometry">
            <mxPoint x="410" y="660" as="targetPoint" />
          </mxGeometry>
        </mxCell>
        <mxCell id="Mxa73cPTpktInXATQY8C-39" value="" style="rounded=0;whiteSpace=wrap;html=1;" parent="1" vertex="1">
          <mxGeometry x="250" y="707.5" width="80" height="40" as="geometry" />
        </mxCell>
        <mxCell id="Mxa73cPTpktInXATQY8C-40" value="Sonido" style="text;html=1;strokeColor=none;fillColor=none;align=center;verticalAlign=middle;whiteSpace=wrap;rounded=0;" parent="1" vertex="1">
          <mxGeometry x="270" y="717.5" width="40" height="20" as="geometry" />
        </mxCell>
        <mxCell id="lt1MG_Y_J4A6Yb-XciJY-149" style="edgeStyle=none;rounded=0;orthogonalLoop=1;jettySize=auto;html=1;exitX=0.5;exitY=0;exitDx=0;exitDy=0;endArrow=none;endFill=0;" edge="1" parent="1" source="Mxa73cPTpktInXATQY8C-42" target="lt1MG_Y_J4A6Yb-XciJY-150">
          <mxGeometry relative="1" as="geometry">
            <mxPoint x="300" y="600" as="targetPoint" />
          </mxGeometry>
        </mxCell>
        <mxCell id="Mxa73cPTpktInXATQY8C-42" value="" style="rounded=0;whiteSpace=wrap;html=1;" parent="1" vertex="1">
          <mxGeometry x="255" y="642.5" width="80" height="35" as="geometry" />
        </mxCell>
        <mxCell id="Mxa73cPTpktInXATQY8C-43" value="Iluminacion" style="text;html=1;strokeColor=none;fillColor=none;align=center;verticalAlign=middle;whiteSpace=wrap;rounded=0;" parent="1" vertex="1">
          <mxGeometry x="275" y="650" width="40" height="20" as="geometry" />
        </mxCell>
        <mxCell id="lt1MG_Y_J4A6Yb-XciJY-143" style="edgeStyle=none;rounded=0;orthogonalLoop=1;jettySize=auto;html=1;exitX=0.25;exitY=1;exitDx=0;exitDy=0;endArrow=none;endFill=0;" edge="1" parent="1" source="Mxa73cPTpktInXATQY8C-45" target="lt1MG_Y_J4A6Yb-XciJY-144">
          <mxGeometry relative="1" as="geometry">
            <mxPoint x="300" y="850" as="targetPoint" />
          </mxGeometry>
        </mxCell>
        <mxCell id="Mxa73cPTpktInXATQY8C-45" value="" style="rounded=0;whiteSpace=wrap;html=1;" parent="1" vertex="1">
          <mxGeometry x="234" y="767.5" width="100" height="35" as="geometry" />
        </mxCell>
        <mxCell id="Mxa73cPTpktInXATQY8C-46" value="Grabacion" style="text;html=1;strokeColor=none;fillColor=none;align=center;verticalAlign=middle;whiteSpace=wrap;rounded=0;" parent="1" vertex="1">
          <mxGeometry x="264" y="775" width="40" height="20" as="geometry" />
        </mxCell>
        <mxCell id="lt1MG_Y_J4A6Yb-XciJY-186" style="edgeStyle=none;rounded=0;orthogonalLoop=1;jettySize=auto;html=1;exitX=0.5;exitY=0;exitDx=0;exitDy=0;endArrow=none;endFill=0;" edge="1" parent="1" source="Mxa73cPTpktInXATQY8C-48" target="lt1MG_Y_J4A6Yb-XciJY-191">
          <mxGeometry relative="1" as="geometry">
            <mxPoint x="570" y="-190" as="targetPoint" />
          </mxGeometry>
        </mxCell>
        <mxCell id="lt1MG_Y_J4A6Yb-XciJY-187" style="edgeStyle=none;rounded=0;orthogonalLoop=1;jettySize=auto;html=1;exitX=0.5;exitY=0;exitDx=0;exitDy=0;endArrow=none;endFill=0;" edge="1" parent="1" source="Mxa73cPTpktInXATQY8C-48" target="lt1MG_Y_J4A6Yb-XciJY-194">
          <mxGeometry relative="1" as="geometry">
            <mxPoint x="610" y="-210" as="targetPoint" />
          </mxGeometry>
        </mxCell>
        <mxCell id="lt1MG_Y_J4A6Yb-XciJY-188" style="edgeStyle=none;rounded=0;orthogonalLoop=1;jettySize=auto;html=1;exitX=0.5;exitY=0;exitDx=0;exitDy=0;endArrow=none;endFill=0;" edge="1" parent="1" source="Mxa73cPTpktInXATQY8C-48" target="lt1MG_Y_J4A6Yb-XciJY-196">
          <mxGeometry relative="1" as="geometry">
            <mxPoint x="650" y="-210" as="targetPoint" />
          </mxGeometry>
        </mxCell>
        <mxCell id="lt1MG_Y_J4A6Yb-XciJY-189" style="edgeStyle=none;rounded=0;orthogonalLoop=1;jettySize=auto;html=1;exitX=0.5;exitY=0;exitDx=0;exitDy=0;endArrow=none;endFill=0;" edge="1" parent="1" source="Mxa73cPTpktInXATQY8C-48" target="lt1MG_Y_J4A6Yb-XciJY-198">
          <mxGeometry relative="1" as="geometry">
            <mxPoint x="700" y="-200" as="targetPoint" />
          </mxGeometry>
        </mxCell>
        <mxCell id="lt1MG_Y_J4A6Yb-XciJY-190" style="edgeStyle=none;rounded=0;orthogonalLoop=1;jettySize=auto;html=1;exitX=0.5;exitY=0;exitDx=0;exitDy=0;endArrow=none;endFill=0;" edge="1" parent="1" source="Mxa73cPTpktInXATQY8C-48" target="lt1MG_Y_J4A6Yb-XciJY-200">
          <mxGeometry relative="1" as="geometry">
            <mxPoint x="750" y="-160" as="targetPoint" />
          </mxGeometry>
        </mxCell>
        <mxCell id="Mxa73cPTpktInXATQY8C-48" value="" style="rounded=0;whiteSpace=wrap;html=1;" parent="1" vertex="1">
          <mxGeometry x="590" y="-120" width="120" height="60" as="geometry" />
        </mxCell>
        <mxCell id="Mxa73cPTpktInXATQY8C-49" value="Merchandising" style="text;html=1;strokeColor=none;fillColor=none;align=center;verticalAlign=middle;whiteSpace=wrap;rounded=0;" parent="1" vertex="1">
          <mxGeometry x="630" y="-100" width="40" height="20" as="geometry" />
        </mxCell>
        <mxCell id="Mxa73cPTpktInXATQY8C-50" value="" style="rhombus;whiteSpace=wrap;html=1;" parent="1" vertex="1">
          <mxGeometry x="620" width="60" height="50" as="geometry" />
        </mxCell>
        <mxCell id="Mxa73cPTpktInXATQY8C-51" value="tiene" style="text;html=1;strokeColor=none;fillColor=none;align=center;verticalAlign=middle;whiteSpace=wrap;rounded=0;" parent="1" vertex="1">
          <mxGeometry x="630" y="15" width="40" height="20" as="geometry" />
        </mxCell>
        <mxCell id="lt1MG_Y_J4A6Yb-XciJY-203" style="edgeStyle=none;rounded=0;orthogonalLoop=1;jettySize=auto;html=1;exitX=0.5;exitY=0;exitDx=0;exitDy=0;endArrow=none;endFill=0;" edge="1" parent="1" source="Mxa73cPTpktInXATQY8C-52" target="lt1MG_Y_J4A6Yb-XciJY-208">
          <mxGeometry relative="1" as="geometry">
            <mxPoint x="840" y="-160" as="targetPoint" />
          </mxGeometry>
        </mxCell>
        <mxCell id="lt1MG_Y_J4A6Yb-XciJY-204" style="edgeStyle=none;rounded=0;orthogonalLoop=1;jettySize=auto;html=1;exitX=0.5;exitY=0;exitDx=0;exitDy=0;endArrow=none;endFill=0;" edge="1" parent="1" source="Mxa73cPTpktInXATQY8C-52" target="lt1MG_Y_J4A6Yb-XciJY-210">
          <mxGeometry relative="1" as="geometry">
            <mxPoint x="890" y="-180" as="targetPoint" />
          </mxGeometry>
        </mxCell>
        <mxCell id="lt1MG_Y_J4A6Yb-XciJY-205" style="edgeStyle=none;rounded=0;orthogonalLoop=1;jettySize=auto;html=1;exitX=0.5;exitY=0;exitDx=0;exitDy=0;endArrow=none;endFill=0;" edge="1" parent="1" source="Mxa73cPTpktInXATQY8C-52" target="lt1MG_Y_J4A6Yb-XciJY-212">
          <mxGeometry relative="1" as="geometry">
            <mxPoint x="930" y="-180" as="targetPoint" />
          </mxGeometry>
        </mxCell>
        <mxCell id="lt1MG_Y_J4A6Yb-XciJY-206" style="edgeStyle=none;rounded=0;orthogonalLoop=1;jettySize=auto;html=1;exitX=0.5;exitY=0;exitDx=0;exitDy=0;endArrow=none;endFill=0;" edge="1" parent="1" source="Mxa73cPTpktInXATQY8C-52" target="lt1MG_Y_J4A6Yb-XciJY-214">
          <mxGeometry relative="1" as="geometry">
            <mxPoint x="980" y="-180" as="targetPoint" />
          </mxGeometry>
        </mxCell>
        <mxCell id="lt1MG_Y_J4A6Yb-XciJY-207" style="edgeStyle=none;rounded=0;orthogonalLoop=1;jettySize=auto;html=1;exitX=0.5;exitY=0;exitDx=0;exitDy=0;endArrow=none;endFill=0;" edge="1" parent="1" source="Mxa73cPTpktInXATQY8C-52" target="lt1MG_Y_J4A6Yb-XciJY-216">
          <mxGeometry relative="1" as="geometry">
            <mxPoint x="1020" y="-140" as="targetPoint" />
          </mxGeometry>
        </mxCell>
        <mxCell id="Mxa73cPTpktInXATQY8C-52" value="" style="rounded=0;whiteSpace=wrap;html=1;" parent="1" vertex="1">
          <mxGeometry x="850" y="-110" width="120" height="50" as="geometry" />
        </mxCell>
        <mxCell id="Mxa73cPTpktInXATQY8C-53" value="Patrocinador" style="text;html=1;strokeColor=none;fillColor=none;align=center;verticalAlign=middle;whiteSpace=wrap;rounded=0;" parent="1" vertex="1">
          <mxGeometry x="890" y="-92.5" width="40" height="20" as="geometry" />
        </mxCell>
        <mxCell id="lt1MG_Y_J4A6Yb-XciJY-222" style="edgeStyle=none;rounded=0;orthogonalLoop=1;jettySize=auto;html=1;exitX=0;exitY=0;exitDx=0;exitDy=0;endArrow=none;endFill=0;" edge="1" parent="1" source="Mxa73cPTpktInXATQY8C-55" target="lt1MG_Y_J4A6Yb-XciJY-223">
          <mxGeometry relative="1" as="geometry">
            <mxPoint x="740" y="-20" as="targetPoint" />
          </mxGeometry>
        </mxCell>
        <mxCell id="lt1MG_Y_J4A6Yb-XciJY-225" style="edgeStyle=none;rounded=0;orthogonalLoop=1;jettySize=auto;html=1;exitX=1;exitY=0.5;exitDx=0;exitDy=0;endArrow=none;endFill=0;" edge="1" parent="1" source="Mxa73cPTpktInXATQY8C-55" target="lt1MG_Y_J4A6Yb-XciJY-226">
          <mxGeometry relative="1" as="geometry">
            <mxPoint x="880" y="10" as="targetPoint" />
          </mxGeometry>
        </mxCell>
        <mxCell id="lt1MG_Y_J4A6Yb-XciJY-228" style="edgeStyle=none;rounded=0;orthogonalLoop=1;jettySize=auto;html=1;exitX=0.5;exitY=1;exitDx=0;exitDy=0;endArrow=none;endFill=0;" edge="1" parent="1" source="Mxa73cPTpktInXATQY8C-55" target="lt1MG_Y_J4A6Yb-XciJY-229">
          <mxGeometry relative="1" as="geometry">
            <mxPoint x="792" y="110" as="targetPoint" />
          </mxGeometry>
        </mxCell>
        <mxCell id="Mxa73cPTpktInXATQY8C-55" value="" style="rhombus;whiteSpace=wrap;html=1;" parent="1" vertex="1">
          <mxGeometry x="757" width="70" height="60" as="geometry" />
        </mxCell>
        <mxCell id="Mxa73cPTpktInXATQY8C-56" value="patrocina" style="text;html=1;strokeColor=none;fillColor=none;align=center;verticalAlign=middle;whiteSpace=wrap;rounded=0;" parent="1" vertex="1">
          <mxGeometry x="775" y="20" width="40" height="20" as="geometry" />
        </mxCell>
        <mxCell id="lt1MG_Y_J4A6Yb-XciJY-81" style="edgeStyle=none;rounded=0;orthogonalLoop=1;jettySize=auto;html=1;exitX=0;exitY=0.5;exitDx=0;exitDy=0;endArrow=none;endFill=0;" edge="1" parent="1" source="Mxa73cPTpktInXATQY8C-61" target="lt1MG_Y_J4A6Yb-XciJY-85">
          <mxGeometry relative="1" as="geometry">
            <mxPoint x="510" y="300" as="targetPoint" />
          </mxGeometry>
        </mxCell>
        <mxCell id="lt1MG_Y_J4A6Yb-XciJY-82" style="edgeStyle=none;rounded=0;orthogonalLoop=1;jettySize=auto;html=1;exitX=0;exitY=0.5;exitDx=0;exitDy=0;endArrow=none;endFill=0;" edge="1" parent="1" source="Mxa73cPTpktInXATQY8C-61" target="lt1MG_Y_J4A6Yb-XciJY-87">
          <mxGeometry relative="1" as="geometry">
            <mxPoint x="510" y="350" as="targetPoint" />
          </mxGeometry>
        </mxCell>
        <mxCell id="lt1MG_Y_J4A6Yb-XciJY-83" style="edgeStyle=none;rounded=0;orthogonalLoop=1;jettySize=auto;html=1;exitX=0;exitY=0.5;exitDx=0;exitDy=0;endArrow=none;endFill=0;" edge="1" parent="1" source="Mxa73cPTpktInXATQY8C-61" target="lt1MG_Y_J4A6Yb-XciJY-89">
          <mxGeometry relative="1" as="geometry">
            <mxPoint x="460" y="360" as="targetPoint" />
          </mxGeometry>
        </mxCell>
        <mxCell id="lt1MG_Y_J4A6Yb-XciJY-84" style="edgeStyle=none;rounded=0;orthogonalLoop=1;jettySize=auto;html=1;exitX=0;exitY=0.5;exitDx=0;exitDy=0;endArrow=none;endFill=0;" edge="1" parent="1" source="Mxa73cPTpktInXATQY8C-61" target="lt1MG_Y_J4A6Yb-XciJY-91">
          <mxGeometry relative="1" as="geometry">
            <mxPoint x="500" y="400" as="targetPoint" />
          </mxGeometry>
        </mxCell>
        <mxCell id="Mxa73cPTpktInXATQY8C-61" value="" style="rounded=0;whiteSpace=wrap;html=1;" parent="1" vertex="1">
          <mxGeometry x="590" y="320" width="120" height="60" as="geometry" />
        </mxCell>
        <mxCell id="Mxa73cPTpktInXATQY8C-62" value="Escenario" style="text;html=1;strokeColor=none;fillColor=none;align=center;verticalAlign=middle;whiteSpace=wrap;rounded=0;" parent="1" vertex="1">
          <mxGeometry x="630" y="340" width="40" height="20" as="geometry" />
        </mxCell>
        <mxCell id="lt1MG_Y_J4A6Yb-XciJY-219" style="edgeStyle=none;rounded=0;orthogonalLoop=1;jettySize=auto;html=1;exitX=1;exitY=0.5;exitDx=0;exitDy=0;endArrow=none;endFill=0;" edge="1" parent="1" source="Mxa73cPTpktInXATQY8C-63" target="lt1MG_Y_J4A6Yb-XciJY-220">
          <mxGeometry relative="1" as="geometry">
            <mxPoint x="740" y="260" as="targetPoint" />
          </mxGeometry>
        </mxCell>
        <mxCell id="Mxa73cPTpktInXATQY8C-63" value="" style="rhombus;whiteSpace=wrap;html=1;" parent="1" vertex="1">
          <mxGeometry x="605" y="220" width="90" height="80" as="geometry" />
        </mxCell>
        <mxCell id="Mxa73cPTpktInXATQY8C-64" value="" style="rhombus;whiteSpace=wrap;html=1;" parent="1" vertex="1">
          <mxGeometry x="847" y="260" width="60" height="70" as="geometry" />
        </mxCell>
        <mxCell id="Mxa73cPTpktInXATQY8C-65" value="Actua en" style="text;html=1;strokeColor=none;fillColor=none;align=center;verticalAlign=middle;whiteSpace=wrap;rounded=0;" parent="1" vertex="1">
          <mxGeometry x="625" y="247.5" width="55" height="25" as="geometry" />
        </mxCell>
        <mxCell id="Mxa73cPTpktInXATQY8C-66" value="tiene" style="text;html=1;strokeColor=none;fillColor=none;align=center;verticalAlign=middle;whiteSpace=wrap;rounded=0;" parent="1" vertex="1">
          <mxGeometry x="857" y="285" width="40" height="15" as="geometry" />
        </mxCell>
        <mxCell id="lt1MG_Y_J4A6Yb-XciJY-166" style="edgeStyle=none;rounded=0;orthogonalLoop=1;jettySize=auto;html=1;exitX=0.25;exitY=0;exitDx=0;exitDy=0;endArrow=none;endFill=0;" edge="1" parent="1" source="Mxa73cPTpktInXATQY8C-71" target="lt1MG_Y_J4A6Yb-XciJY-172">
          <mxGeometry relative="1" as="geometry">
            <mxPoint x="600" y="740" as="targetPoint" />
          </mxGeometry>
        </mxCell>
        <mxCell id="lt1MG_Y_J4A6Yb-XciJY-167" style="edgeStyle=none;rounded=0;orthogonalLoop=1;jettySize=auto;html=1;exitX=0.25;exitY=0;exitDx=0;exitDy=0;endArrow=none;endFill=0;" edge="1" parent="1" source="Mxa73cPTpktInXATQY8C-71" target="lt1MG_Y_J4A6Yb-XciJY-176">
          <mxGeometry relative="1" as="geometry">
            <mxPoint x="630" y="730" as="targetPoint" />
          </mxGeometry>
        </mxCell>
        <mxCell id="lt1MG_Y_J4A6Yb-XciJY-168" style="edgeStyle=none;rounded=0;orthogonalLoop=1;jettySize=auto;html=1;exitX=0.25;exitY=0;exitDx=0;exitDy=0;endArrow=none;endFill=0;" edge="1" parent="1" source="Mxa73cPTpktInXATQY8C-71" target="lt1MG_Y_J4A6Yb-XciJY-178">
          <mxGeometry relative="1" as="geometry">
            <mxPoint x="646" y="710" as="targetPoint" />
          </mxGeometry>
        </mxCell>
        <mxCell id="lt1MG_Y_J4A6Yb-XciJY-169" style="edgeStyle=none;rounded=0;orthogonalLoop=1;jettySize=auto;html=1;exitX=0.75;exitY=0;exitDx=0;exitDy=0;endArrow=none;endFill=0;" edge="1" parent="1" source="Mxa73cPTpktInXATQY8C-71" target="lt1MG_Y_J4A6Yb-XciJY-180">
          <mxGeometry relative="1" as="geometry">
            <mxPoint x="696" y="730" as="targetPoint" />
          </mxGeometry>
        </mxCell>
        <mxCell id="lt1MG_Y_J4A6Yb-XciJY-170" style="edgeStyle=none;rounded=0;orthogonalLoop=1;jettySize=auto;html=1;exitX=0.75;exitY=0;exitDx=0;exitDy=0;endArrow=none;endFill=0;" edge="1" parent="1" source="Mxa73cPTpktInXATQY8C-71" target="lt1MG_Y_J4A6Yb-XciJY-182">
          <mxGeometry relative="1" as="geometry">
            <mxPoint x="790" y="700" as="targetPoint" />
          </mxGeometry>
        </mxCell>
        <mxCell id="lt1MG_Y_J4A6Yb-XciJY-171" style="edgeStyle=none;rounded=0;orthogonalLoop=1;jettySize=auto;html=1;exitX=0.75;exitY=0;exitDx=0;exitDy=0;endArrow=none;endFill=0;" edge="1" parent="1" source="Mxa73cPTpktInXATQY8C-71" target="lt1MG_Y_J4A6Yb-XciJY-184">
          <mxGeometry relative="1" as="geometry">
            <mxPoint x="820" y="750" as="targetPoint" />
          </mxGeometry>
        </mxCell>
        <mxCell id="Mxa73cPTpktInXATQY8C-71" value="" style="rounded=0;whiteSpace=wrap;html=1;" parent="1" vertex="1">
          <mxGeometry x="621.25" y="780" width="100" height="40" as="geometry" />
        </mxCell>
        <mxCell id="Mxa73cPTpktInXATQY8C-72" value="Retransmision" style="text;html=1;strokeColor=none;fillColor=none;align=center;verticalAlign=middle;whiteSpace=wrap;rounded=0;" parent="1" vertex="1">
          <mxGeometry x="651.25" y="790" width="40" height="20" as="geometry" />
        </mxCell>
        <mxCell id="Mxa73cPTpktInXATQY8C-80" value="" style="rhombus;whiteSpace=wrap;html=1;" parent="1" vertex="1">
          <mxGeometry x="477" y="770" width="60" height="60" as="geometry" />
        </mxCell>
        <mxCell id="Mxa73cPTpktInXATQY8C-81" value="produce" style="text;html=1;strokeColor=none;fillColor=none;align=center;verticalAlign=middle;whiteSpace=wrap;rounded=0;" parent="1" vertex="1">
          <mxGeometry x="487" y="790" width="40" height="20" as="geometry" />
        </mxCell>
        <mxCell id="lt1MG_Y_J4A6Yb-XciJY-10" style="edgeStyle=none;rounded=0;orthogonalLoop=1;jettySize=auto;html=1;exitX=0.25;exitY=0;exitDx=0;exitDy=0;endArrow=none;endFill=0;" edge="1" parent="1" source="Mxa73cPTpktInXATQY8C-84" target="lt1MG_Y_J4A6Yb-XciJY-11">
          <mxGeometry relative="1" as="geometry">
            <mxPoint x="-360" y="590" as="targetPoint" />
          </mxGeometry>
        </mxCell>
        <mxCell id="lt1MG_Y_J4A6Yb-XciJY-13" style="edgeStyle=none;rounded=0;orthogonalLoop=1;jettySize=auto;html=1;exitX=0.25;exitY=0;exitDx=0;exitDy=0;endArrow=none;endFill=0;" edge="1" parent="1" source="Mxa73cPTpktInXATQY8C-84" target="lt1MG_Y_J4A6Yb-XciJY-14">
          <mxGeometry relative="1" as="geometry">
            <mxPoint x="-290" y="580" as="targetPoint" />
          </mxGeometry>
        </mxCell>
        <mxCell id="lt1MG_Y_J4A6Yb-XciJY-16" style="edgeStyle=none;rounded=0;orthogonalLoop=1;jettySize=auto;html=1;exitX=0.25;exitY=0;exitDx=0;exitDy=0;endArrow=none;endFill=0;" edge="1" parent="1" source="Mxa73cPTpktInXATQY8C-84" target="lt1MG_Y_J4A6Yb-XciJY-17">
          <mxGeometry relative="1" as="geometry">
            <mxPoint x="-320" y="540" as="targetPoint" />
          </mxGeometry>
        </mxCell>
        <mxCell id="lt1MG_Y_J4A6Yb-XciJY-19" style="edgeStyle=none;rounded=0;orthogonalLoop=1;jettySize=auto;html=1;exitX=0;exitY=0;exitDx=0;exitDy=0;endArrow=none;endFill=0;" edge="1" parent="1" source="Mxa73cPTpktInXATQY8C-84" target="lt1MG_Y_J4A6Yb-XciJY-20">
          <mxGeometry relative="1" as="geometry">
            <mxPoint x="-430" y="600" as="targetPoint" />
          </mxGeometry>
        </mxCell>
        <mxCell id="lt1MG_Y_J4A6Yb-XciJY-22" style="edgeStyle=none;rounded=0;orthogonalLoop=1;jettySize=auto;html=1;exitX=0.75;exitY=0;exitDx=0;exitDy=0;endArrow=none;endFill=0;" edge="1" parent="1" source="Mxa73cPTpktInXATQY8C-84" target="lt1MG_Y_J4A6Yb-XciJY-23">
          <mxGeometry relative="1" as="geometry">
            <mxPoint x="-210" y="570" as="targetPoint" />
          </mxGeometry>
        </mxCell>
        <mxCell id="lt1MG_Y_J4A6Yb-XciJY-26" style="edgeStyle=none;rounded=0;orthogonalLoop=1;jettySize=auto;html=1;exitX=0;exitY=0.5;exitDx=0;exitDy=0;endArrow=none;endFill=0;" edge="1" parent="1" source="Mxa73cPTpktInXATQY8C-84" target="lt1MG_Y_J4A6Yb-XciJY-27">
          <mxGeometry relative="1" as="geometry">
            <mxPoint x="-460" y="640" as="targetPoint" />
          </mxGeometry>
        </mxCell>
        <mxCell id="Mxa73cPTpktInXATQY8C-84" value="" style="rounded=0;whiteSpace=wrap;html=1;" parent="1" vertex="1">
          <mxGeometry x="-350" y="641.25" width="100" height="45" as="geometry" />
        </mxCell>
        <mxCell id="Mxa73cPTpktInXATQY8C-85" value="Entradas" style="text;html=1;strokeColor=none;fillColor=none;align=center;verticalAlign=middle;whiteSpace=wrap;rounded=0;" parent="1" vertex="1">
          <mxGeometry x="-320" y="653.75" width="40" height="20" as="geometry" />
        </mxCell>
        <mxCell id="Mxa73cPTpktInXATQY8C-87" value="" style="rhombus;whiteSpace=wrap;html=1;" parent="1" vertex="1">
          <mxGeometry x="-160" y="633.75" width="60" height="60" as="geometry" />
        </mxCell>
        <mxCell id="Mxa73cPTpktInXATQY8C-88" value="vende" style="text;html=1;strokeColor=none;fillColor=none;align=center;verticalAlign=middle;whiteSpace=wrap;rounded=0;" parent="1" vertex="1">
          <mxGeometry x="-150" y="653.75" width="40" height="20" as="geometry" />
        </mxCell>
        <mxCell id="Mxa73cPTpktInXATQY8C-91" value="" style="rhombus;whiteSpace=wrap;html=1;" parent="1" vertex="1">
          <mxGeometry x="505" y="440" width="80" height="80" as="geometry" />
        </mxCell>
        <mxCell id="Mxa73cPTpktInXATQY8C-92" value="ilumina" style="text;html=1;strokeColor=none;fillColor=none;align=center;verticalAlign=middle;whiteSpace=wrap;rounded=0;" parent="1" vertex="1">
          <mxGeometry x="525" y="470" width="40" height="20" as="geometry" />
        </mxCell>
        <mxCell id="lt1MG_Y_J4A6Yb-XciJY-6" style="rounded=0;orthogonalLoop=1;jettySize=auto;html=1;exitX=0.5;exitY=0;exitDx=0;exitDy=0;endArrow=none;endFill=0;entryX=1;entryY=1;entryDx=0;entryDy=0;" edge="1" parent="1" source="Mxa73cPTpktInXATQY8C-95" target="Mxa73cPTpktInXATQY8C-61">
          <mxGeometry relative="1" as="geometry">
            <mxPoint x="800" y="600" as="targetPoint" />
          </mxGeometry>
        </mxCell>
        <mxCell id="lt1MG_Y_J4A6Yb-XciJY-231" style="edgeStyle=none;rounded=0;orthogonalLoop=1;jettySize=auto;html=1;exitX=0;exitY=0;exitDx=0;exitDy=0;endArrow=none;endFill=0;" edge="1" parent="1" source="Mxa73cPTpktInXATQY8C-95" target="lt1MG_Y_J4A6Yb-XciJY-232">
          <mxGeometry relative="1" as="geometry">
            <mxPoint x="830" y="850" as="targetPoint" />
          </mxGeometry>
        </mxCell>
        <mxCell id="Mxa73cPTpktInXATQY8C-95" value="" style="rhombus;whiteSpace=wrap;html=1;" parent="1" vertex="1">
          <mxGeometry x="875" y="870" width="80" height="80" as="geometry" />
        </mxCell>
        <mxCell id="Mxa73cPTpktInXATQY8C-96" value="supervisa" style="text;html=1;strokeColor=none;fillColor=none;align=center;verticalAlign=middle;whiteSpace=wrap;rounded=0;" parent="1" vertex="1">
          <mxGeometry x="895" y="900" width="40" height="20" as="geometry" />
        </mxCell>
        <mxCell id="Mxa73cPTpktInXATQY8C-104" value="" style="rhombus;whiteSpace=wrap;html=1;" parent="1" vertex="1">
          <mxGeometry x="1130" y="965" width="80" height="80" as="geometry" />
        </mxCell>
        <mxCell id="Mxa73cPTpktInXATQY8C-105" value="alimenta" style="text;html=1;strokeColor=none;fillColor=none;align=center;verticalAlign=middle;whiteSpace=wrap;rounded=0;" parent="1" vertex="1">
          <mxGeometry x="1150" y="995" width="40" height="20" as="geometry" />
        </mxCell>
        <mxCell id="lt1MG_Y_J4A6Yb-XciJY-155" style="edgeStyle=none;rounded=0;orthogonalLoop=1;jettySize=auto;html=1;exitX=0;exitY=0;exitDx=0;exitDy=0;endArrow=none;endFill=0;" edge="1" parent="1" source="Mxa73cPTpktInXATQY8C-110" target="lt1MG_Y_J4A6Yb-XciJY-156">
          <mxGeometry relative="1" as="geometry">
            <mxPoint x="610" y="570" as="targetPoint" />
          </mxGeometry>
        </mxCell>
        <mxCell id="lt1MG_Y_J4A6Yb-XciJY-161" style="edgeStyle=none;rounded=0;orthogonalLoop=1;jettySize=auto;html=1;exitX=1;exitY=0.5;exitDx=0;exitDy=0;endArrow=none;endFill=0;" edge="1" parent="1" source="Mxa73cPTpktInXATQY8C-110" target="lt1MG_Y_J4A6Yb-XciJY-162">
          <mxGeometry relative="1" as="geometry">
            <mxPoint x="740" y="629" as="targetPoint" />
          </mxGeometry>
        </mxCell>
        <mxCell id="Mxa73cPTpktInXATQY8C-110" value="" style="rhombus;whiteSpace=wrap;html=1;" parent="1" vertex="1">
          <mxGeometry x="615" y="598.75" width="70" height="60" as="geometry" />
        </mxCell>
        <mxCell id="lt1MG_Y_J4A6Yb-XciJY-152" style="edgeStyle=none;rounded=0;orthogonalLoop=1;jettySize=auto;html=1;exitX=0;exitY=0;exitDx=0;exitDy=0;endArrow=none;endFill=0;" edge="1" parent="1" source="Mxa73cPTpktInXATQY8C-111" target="lt1MG_Y_J4A6Yb-XciJY-153">
          <mxGeometry relative="1" as="geometry">
            <mxPoint x="540" y="590" as="targetPoint" />
          </mxGeometry>
        </mxCell>
        <mxCell id="lt1MG_Y_J4A6Yb-XciJY-158" style="edgeStyle=none;rounded=0;orthogonalLoop=1;jettySize=auto;html=1;exitX=1;exitY=0;exitDx=0;exitDy=0;endArrow=none;endFill=0;" edge="1" parent="1" source="Mxa73cPTpktInXATQY8C-111" target="lt1MG_Y_J4A6Yb-XciJY-159">
          <mxGeometry relative="1" as="geometry">
            <mxPoint x="680" y="580" as="targetPoint" />
          </mxGeometry>
        </mxCell>
        <mxCell id="Mxa73cPTpktInXATQY8C-111" value="graba" style="text;html=1;strokeColor=none;fillColor=none;align=center;verticalAlign=middle;whiteSpace=wrap;rounded=0;" parent="1" vertex="1">
          <mxGeometry x="630" y="618.75" width="40" height="20" as="geometry" />
        </mxCell>
        <mxCell id="Mxa73cPTpktInXATQY8C-118" value="N:M" style="text;html=1;strokeColor=none;fillColor=none;align=center;verticalAlign=middle;whiteSpace=wrap;rounded=0;" parent="1" vertex="1">
          <mxGeometry x="374" y="100" width="40" height="20" as="geometry" />
        </mxCell>
        <mxCell id="Mxa73cPTpktInXATQY8C-119" value="(1,n)" style="text;html=1;strokeColor=none;fillColor=none;align=center;verticalAlign=middle;whiteSpace=wrap;rounded=0;" parent="1" vertex="1">
          <mxGeometry x="220" y="170" width="40" height="20" as="geometry" />
        </mxCell>
        <mxCell id="Mxa73cPTpktInXATQY8C-120" value="(1,n)" style="text;html=1;strokeColor=none;fillColor=none;align=center;verticalAlign=middle;whiteSpace=wrap;rounded=0;" parent="1" vertex="1">
          <mxGeometry x="550" y="170" width="40" height="20" as="geometry" />
        </mxCell>
        <mxCell id="Mxa73cPTpktInXATQY8C-123" value="(1,n)" style="text;html=1;strokeColor=none;fillColor=none;align=center;verticalAlign=middle;whiteSpace=wrap;rounded=0;" parent="1" vertex="1">
          <mxGeometry x="175" y="200" width="40" height="20" as="geometry" />
        </mxCell>
        <mxCell id="Mxa73cPTpktInXATQY8C-124" value="(1,n)" style="text;html=1;strokeColor=none;fillColor=none;align=center;verticalAlign=middle;whiteSpace=wrap;rounded=0;" parent="1" vertex="1">
          <mxGeometry x="165" y="410" width="40" height="20" as="geometry" />
        </mxCell>
        <mxCell id="Mxa73cPTpktInXATQY8C-125" value="(1,1)" style="text;html=1;strokeColor=none;fillColor=none;align=center;verticalAlign=middle;whiteSpace=wrap;rounded=0;" parent="1" vertex="1">
          <mxGeometry x="590" y="-50" width="40" height="20" as="geometry" />
        </mxCell>
        <mxCell id="Mxa73cPTpktInXATQY8C-126" value="(1,1)" style="text;html=1;strokeColor=none;fillColor=none;align=center;verticalAlign=middle;whiteSpace=wrap;rounded=0;" parent="1" vertex="1">
          <mxGeometry x="585" y="100" width="40" height="20" as="geometry" />
        </mxCell>
        <mxCell id="Mxa73cPTpktInXATQY8C-127" value="(1,n)" style="text;html=1;strokeColor=none;fillColor=none;align=center;verticalAlign=middle;whiteSpace=wrap;rounded=0;" parent="1" vertex="1">
          <mxGeometry x="860" y="-50" width="40" height="20" as="geometry" />
        </mxCell>
        <mxCell id="Mxa73cPTpktInXATQY8C-128" value="(1,n)" style="text;html=1;strokeColor=none;fillColor=none;align=center;verticalAlign=middle;whiteSpace=wrap;rounded=0;" parent="1" vertex="1">
          <mxGeometry x="670" y="100" width="40" height="20" as="geometry" />
        </mxCell>
        <mxCell id="Mxa73cPTpktInXATQY8C-129" value="1:1" style="text;html=1;strokeColor=none;fillColor=none;align=center;verticalAlign=middle;whiteSpace=wrap;rounded=0;" parent="1" vertex="1">
          <mxGeometry x="570" y="15" width="40" height="20" as="geometry" />
        </mxCell>
        <mxCell id="Mxa73cPTpktInXATQY8C-130" value="N:M" style="text;html=1;strokeColor=none;fillColor=none;align=center;verticalAlign=middle;whiteSpace=wrap;rounded=0;" parent="1" vertex="1">
          <mxGeometry x="800" y="50" width="40" height="20" as="geometry" />
        </mxCell>
        <mxCell id="Mxa73cPTpktInXATQY8C-132" value="(1,n)" style="text;html=1;strokeColor=none;fillColor=none;align=center;verticalAlign=middle;whiteSpace=wrap;rounded=0;" parent="1" vertex="1">
          <mxGeometry x="960" y="170" width="40" height="20" as="geometry" />
        </mxCell>
        <mxCell id="Mxa73cPTpktInXATQY8C-133" value="(1,1)" style="text;html=1;strokeColor=none;fillColor=none;align=center;verticalAlign=middle;whiteSpace=wrap;rounded=0;" parent="1" vertex="1">
          <mxGeometry x="710" y="170" width="40" height="20" as="geometry" />
        </mxCell>
        <mxCell id="Mxa73cPTpktInXATQY8C-134" value="1:N" style="text;html=1;strokeColor=none;fillColor=none;align=center;verticalAlign=middle;whiteSpace=wrap;rounded=0;" parent="1" vertex="1">
          <mxGeometry x="835" y="100" width="40" height="20" as="geometry" />
        </mxCell>
        <mxCell id="Mxa73cPTpktInXATQY8C-135" value="(1,n)" style="text;html=1;strokeColor=none;fillColor=none;align=center;verticalAlign=middle;whiteSpace=wrap;rounded=0;" parent="1" vertex="1">
          <mxGeometry x="577" y="300" width="40" height="20" as="geometry" />
        </mxCell>
        <mxCell id="Mxa73cPTpktInXATQY8C-136" value="(1,n)" style="text;html=1;strokeColor=none;fillColor=none;align=center;verticalAlign=middle;whiteSpace=wrap;rounded=0;" parent="1" vertex="1">
          <mxGeometry x="660" y="190" width="40" height="20" as="geometry" />
        </mxCell>
        <mxCell id="Mxa73cPTpktInXATQY8C-137" value="N:M" style="text;html=1;strokeColor=none;fillColor=none;align=center;verticalAlign=middle;whiteSpace=wrap;rounded=0;" parent="1" vertex="1">
          <mxGeometry x="675" y="230" width="40" height="20" as="geometry" />
        </mxCell>
        <mxCell id="Mxa73cPTpktInXATQY8C-138" value="1:1" style="text;html=1;strokeColor=none;fillColor=none;align=center;verticalAlign=middle;whiteSpace=wrap;rounded=0;" parent="1" vertex="1">
          <mxGeometry x="827" y="250" width="40" height="20" as="geometry" />
        </mxCell>
        <mxCell id="Mxa73cPTpktInXATQY8C-139" value="(1,1)" style="text;html=1;strokeColor=none;fillColor=none;align=center;verticalAlign=middle;whiteSpace=wrap;rounded=0;" parent="1" vertex="1">
          <mxGeometry x="655" y="280" width="40" height="20" as="geometry" />
        </mxCell>
        <mxCell id="Mxa73cPTpktInXATQY8C-140" value="(1,1)" style="text;html=1;strokeColor=none;fillColor=none;align=center;verticalAlign=middle;whiteSpace=wrap;rounded=0;" parent="1" vertex="1">
          <mxGeometry x="1000" y="200" width="40" height="20" as="geometry" />
        </mxCell>
        <mxCell id="Mxa73cPTpktInXATQY8C-141" value="(1,1)" style="text;html=1;strokeColor=none;fillColor=none;align=center;verticalAlign=middle;whiteSpace=wrap;rounded=0;" parent="1" vertex="1">
          <mxGeometry x="165" y="540" width="40" height="20" as="geometry" />
        </mxCell>
        <mxCell id="Mxa73cPTpktInXATQY8C-142" value="(0,1)" style="text;html=1;strokeColor=none;fillColor=none;align=center;verticalAlign=middle;whiteSpace=wrap;rounded=0;" parent="1" vertex="1">
          <mxGeometry x="80" y="645" width="40" height="20" as="geometry" />
        </mxCell>
        <mxCell id="Mxa73cPTpktInXATQY8C-143" value="(0,1)" style="text;html=1;strokeColor=none;fillColor=none;align=center;verticalAlign=middle;whiteSpace=wrap;rounded=0;" parent="1" vertex="1">
          <mxGeometry x="210" y="660" width="40" height="20" as="geometry" />
        </mxCell>
        <mxCell id="Mxa73cPTpktInXATQY8C-144" value="(0,1)" style="text;html=1;strokeColor=none;fillColor=none;align=center;verticalAlign=middle;whiteSpace=wrap;rounded=0;" parent="1" vertex="1">
          <mxGeometry x="175" y="765" width="40" height="20" as="geometry" />
        </mxCell>
        <mxCell id="Mxa73cPTpktInXATQY8C-145" value="(0,1)" style="text;html=1;strokeColor=none;fillColor=none;align=center;verticalAlign=middle;whiteSpace=wrap;rounded=0;" parent="1" vertex="1">
          <mxGeometry x="55" y="697.5" width="40" height="20" as="geometry" />
        </mxCell>
        <mxCell id="Mxa73cPTpktInXATQY8C-146" value="(0,1)" style="text;html=1;strokeColor=none;fillColor=none;align=center;verticalAlign=middle;whiteSpace=wrap;rounded=0;" parent="1" vertex="1">
          <mxGeometry x="215" y="740" width="40" height="20" as="geometry" />
        </mxCell>
        <mxCell id="Mxa73cPTpktInXATQY8C-147" value="(0,1)" style="text;html=1;strokeColor=none;fillColor=none;align=center;verticalAlign=middle;whiteSpace=wrap;rounded=0;" parent="1" vertex="1">
          <mxGeometry x="255" y="680" width="40" height="20" as="geometry" />
        </mxCell>
        <mxCell id="Mxa73cPTpktInXATQY8C-148" value="(1,1)" style="text;html=1;strokeColor=none;fillColor=none;align=center;verticalAlign=middle;whiteSpace=wrap;rounded=0;" parent="1" vertex="1">
          <mxGeometry x="-50" y="632.5" width="40" height="20" as="geometry" />
        </mxCell>
        <mxCell id="Mxa73cPTpktInXATQY8C-149" value="(1,n)" style="text;html=1;strokeColor=none;fillColor=none;align=center;verticalAlign=middle;whiteSpace=wrap;rounded=0;" parent="1" vertex="1">
          <mxGeometry x="-250" y="631.25" width="40" height="20" as="geometry" />
        </mxCell>
        <mxCell id="Mxa73cPTpktInXATQY8C-150" value="1:N" style="text;html=1;strokeColor=none;fillColor=none;align=center;verticalAlign=middle;whiteSpace=wrap;rounded=0;" parent="1" vertex="1">
          <mxGeometry x="-150" y="601.25" width="40" height="20" as="geometry" />
        </mxCell>
        <mxCell id="Mxa73cPTpktInXATQY8C-152" value="(1,n)" style="text;html=1;strokeColor=none;fillColor=none;align=center;verticalAlign=middle;whiteSpace=wrap;rounded=0;" parent="1" vertex="1">
          <mxGeometry x="577.5" y="390" width="40" height="20" as="geometry" />
        </mxCell>
        <mxCell id="Mxa73cPTpktInXATQY8C-153" value="(1,n)" style="text;html=1;strokeColor=none;fillColor=none;align=center;verticalAlign=middle;whiteSpace=wrap;rounded=0;" parent="1" vertex="1">
          <mxGeometry x="334" y="650" width="40" height="20" as="geometry" />
        </mxCell>
        <mxCell id="Mxa73cPTpktInXATQY8C-155" value="N:N:N" style="text;html=1;strokeColor=none;fillColor=none;align=center;verticalAlign=middle;whiteSpace=wrap;rounded=0;" parent="1" vertex="1">
          <mxGeometry x="935" y="930" width="40" height="20" as="geometry" />
        </mxCell>
        <mxCell id="Mxa73cPTpktInXATQY8C-156" value="(1,n)" style="text;html=1;strokeColor=none;fillColor=none;align=center;verticalAlign=middle;whiteSpace=wrap;rounded=0;" parent="1" vertex="1">
          <mxGeometry x="647.5" y="390" width="40" height="20" as="geometry" />
        </mxCell>
        <mxCell id="Mxa73cPTpktInXATQY8C-157" value="(1,n)" style="text;html=1;strokeColor=none;fillColor=none;align=center;verticalAlign=middle;whiteSpace=wrap;rounded=0;" parent="1" vertex="1">
          <mxGeometry x="110" y="840" width="40" height="20" as="geometry" />
        </mxCell>
        <mxCell id="Mxa73cPTpktInXATQY8C-158" value="(1,n)" style="text;html=1;strokeColor=none;fillColor=none;align=center;verticalAlign=middle;whiteSpace=wrap;rounded=0;" parent="1" vertex="1">
          <mxGeometry x="1060" y="200" width="40" height="20" as="geometry" />
        </mxCell>
        <mxCell id="Mxa73cPTpktInXATQY8C-159" value="(1,n)" style="text;html=1;strokeColor=none;fillColor=none;align=center;verticalAlign=middle;whiteSpace=wrap;rounded=0;" parent="1" vertex="1">
          <mxGeometry x="70" y="785" width="40" height="20" as="geometry" />
        </mxCell>
        <mxCell id="Mxa73cPTpktInXATQY8C-160" value="(1,n)" style="text;html=1;strokeColor=none;fillColor=none;align=center;verticalAlign=middle;whiteSpace=wrap;rounded=0;" parent="1" vertex="1">
          <mxGeometry x="1120" y="160" width="40" height="20" as="geometry" />
        </mxCell>
        <mxCell id="Mxa73cPTpktInXATQY8C-161" value="N:M" style="text;html=1;strokeColor=none;fillColor=none;align=center;verticalAlign=middle;whiteSpace=wrap;rounded=0;" parent="1" vertex="1">
          <mxGeometry x="1190" y="965" width="40" height="20" as="geometry" />
        </mxCell>
        <mxCell id="Mxa73cPTpktInXATQY8C-164" value="(1,1)" style="text;html=1;strokeColor=none;fillColor=none;align=center;verticalAlign=middle;whiteSpace=wrap;rounded=0;" parent="1" vertex="1">
          <mxGeometry x="335" y="717.5" width="40" height="20" as="geometry" />
        </mxCell>
        <mxCell id="Mxa73cPTpktInXATQY8C-165" value="1:1:N" style="text;html=1;strokeColor=none;fillColor=none;align=center;verticalAlign=middle;whiteSpace=wrap;rounded=0;" parent="1" vertex="1">
          <mxGeometry x="487" y="840" width="40" height="20" as="geometry" />
        </mxCell>
        <mxCell id="Mxa73cPTpktInXATQY8C-166" value="(1,1)" style="text;html=1;strokeColor=none;fillColor=none;align=center;verticalAlign=middle;whiteSpace=wrap;rounded=0;" parent="1" vertex="1">
          <mxGeometry x="330" y="765" width="40" height="20" as="geometry" />
        </mxCell>
        <mxCell id="Mxa73cPTpktInXATQY8C-167" value="(1,n)" style="text;html=1;strokeColor=none;fillColor=none;align=center;verticalAlign=middle;whiteSpace=wrap;rounded=0;" parent="1" vertex="1">
          <mxGeometry x="583.75" y="797.5" width="40" height="20" as="geometry" />
        </mxCell>
        <mxCell id="Mxa73cPTpktInXATQY8C-168" value="N:M" style="text;html=1;strokeColor=none;fillColor=none;align=center;verticalAlign=middle;whiteSpace=wrap;rounded=0;" parent="1" vertex="1">
          <mxGeometry x="545" y="510" width="40" height="20" as="geometry" />
        </mxCell>
        <mxCell id="Mxa73cPTpktInXATQY8C-169" value="1;1:N" style="text;html=1;strokeColor=none;fillColor=none;align=center;verticalAlign=middle;whiteSpace=wrap;rounded=0;" parent="1" vertex="1">
          <mxGeometry x="630" y="661.25" width="40" height="20" as="geometry" />
        </mxCell>
        <mxCell id="Ux04ODfgkNfyYsIB9h4a-5" value="" style="endArrow=none;html=1;exitX=0.5;exitY=0;exitDx=0;exitDy=0;" parent="1" source="Mxa73cPTpktInXATQY8C-104" edge="1">
          <mxGeometry width="50" height="50" relative="1" as="geometry">
            <mxPoint x="1191" y="940" as="sourcePoint" />
            <mxPoint x="1170" y="160" as="targetPoint" />
          </mxGeometry>
        </mxCell>
        <mxCell id="Ux04ODfgkNfyYsIB9h4a-6" value="" style="endArrow=none;html=1;exitX=0;exitY=0;exitDx=0;exitDy=0;" parent="1" source="Mxa73cPTpktInXATQY8C-160" edge="1">
          <mxGeometry width="50" height="50" relative="1" as="geometry">
            <mxPoint x="1050" y="330" as="sourcePoint" />
            <mxPoint x="1170" y="160" as="targetPoint" />
          </mxGeometry>
        </mxCell>
        <mxCell id="Ux04ODfgkNfyYsIB9h4a-7" value="" style="endArrow=none;html=1;entryX=0;entryY=0.5;entryDx=0;entryDy=0;" parent="1" target="Mxa73cPTpktInXATQY8C-104" edge="1">
          <mxGeometry width="50" height="50" relative="1" as="geometry">
            <mxPoint x="50" y="1010" as="sourcePoint" />
            <mxPoint x="1050" y="980" as="targetPoint" />
          </mxGeometry>
        </mxCell>
        <mxCell id="Ux04ODfgkNfyYsIB9h4a-8" value="" style="endArrow=none;html=1;entryX=0.5;entryY=1;entryDx=0;entryDy=0;" parent="1" target="Mxa73cPTpktInXATQY8C-36" edge="1">
          <mxGeometry width="50" height="50" relative="1" as="geometry">
            <mxPoint x="50" y="1010" as="sourcePoint" />
            <mxPoint x="90" y="860" as="targetPoint" />
          </mxGeometry>
        </mxCell>
        <mxCell id="Ux04ODfgkNfyYsIB9h4a-9" value="" style="endArrow=none;html=1;entryX=0;entryY=0.5;entryDx=0;entryDy=0;" parent="1" target="Mxa73cPTpktInXATQY8C-95" edge="1">
          <mxGeometry width="50" height="50" relative="1" as="geometry">
            <mxPoint x="160" y="910" as="sourcePoint" />
            <mxPoint x="420" y="890" as="targetPoint" />
          </mxGeometry>
        </mxCell>
        <mxCell id="Ux04ODfgkNfyYsIB9h4a-10" value="" style="endArrow=none;html=1;entryX=0.5;entryY=1;entryDx=0;entryDy=0;" parent="1" target="Mxa73cPTpktInXATQY8C-33" edge="1">
          <mxGeometry width="50" height="50" relative="1" as="geometry">
            <mxPoint x="160" y="910" as="sourcePoint" />
            <mxPoint x="200" y="840" as="targetPoint" />
          </mxGeometry>
        </mxCell>
        <mxCell id="Ux04ODfgkNfyYsIB9h4a-11" value="" style="endArrow=none;html=1;entryX=0.5;entryY=1;entryDx=0;entryDy=0;exitX=1;exitY=0.5;exitDx=0;exitDy=0;" parent="1" source="Mxa73cPTpktInXATQY8C-95" target="Mxa73cPTpktInXATQY8C-10" edge="1">
          <mxGeometry width="50" height="50" relative="1" as="geometry">
            <mxPoint x="980" y="490" as="sourcePoint" />
            <mxPoint x="1030" y="440" as="targetPoint" />
          </mxGeometry>
        </mxCell>
        <mxCell id="Ux04ODfgkNfyYsIB9h4a-13" value="" style="endArrow=none;html=1;entryX=0;entryY=0.5;entryDx=0;entryDy=0;exitX=1;exitY=0.5;exitDx=0;exitDy=0;" parent="1" source="Mxa73cPTpktInXATQY8C-84" target="Mxa73cPTpktInXATQY8C-87" edge="1">
          <mxGeometry width="50" height="50" relative="1" as="geometry">
            <mxPoint x="-200" y="743.75" as="sourcePoint" />
            <mxPoint x="-150" y="693.75" as="targetPoint" />
          </mxGeometry>
        </mxCell>
        <mxCell id="Ux04ODfgkNfyYsIB9h4a-14" value="" style="endArrow=none;html=1;entryX=0;entryY=0.5;entryDx=0;entryDy=0;exitX=1;exitY=0.5;exitDx=0;exitDy=0;" parent="1" source="Mxa73cPTpktInXATQY8C-87" target="Mxa73cPTpktInXATQY8C-27" edge="1">
          <mxGeometry width="50" height="50" relative="1" as="geometry">
            <mxPoint x="-90" y="727.5" as="sourcePoint" />
            <mxPoint x="-40" y="677.5" as="targetPoint" />
          </mxGeometry>
        </mxCell>
        <mxCell id="Ux04ODfgkNfyYsIB9h4a-16" value="" style="endArrow=none;html=1;exitX=1;exitY=0.5;exitDx=0;exitDy=0;" parent="1" source="Mxa73cPTpktInXATQY8C-27" edge="1">
          <mxGeometry width="50" height="50" relative="1" as="geometry">
            <mxPoint x="80" y="730" as="sourcePoint" />
            <mxPoint x="127" y="662" as="targetPoint" />
          </mxGeometry>
        </mxCell>
        <mxCell id="Ux04ODfgkNfyYsIB9h4a-18" value="" style="endArrow=none;html=1;entryX=0.5;entryY=1;entryDx=0;entryDy=0;exitX=0.5;exitY=0;exitDx=0;exitDy=0;" parent="1" source="Mxa73cPTpktInXATQY8C-36" target="Mxa73cPTpktInXATQY8C-23" edge="1">
          <mxGeometry width="50" height="50" relative="1" as="geometry">
            <mxPoint x="90" y="740" as="sourcePoint" />
            <mxPoint x="140" y="690" as="targetPoint" />
          </mxGeometry>
        </mxCell>
        <mxCell id="Ux04ODfgkNfyYsIB9h4a-19" value="" style="endArrow=none;html=1;entryX=1;entryY=0.5;entryDx=0;entryDy=0;exitX=0.5;exitY=0;exitDx=0;exitDy=0;" parent="1" source="Mxa73cPTpktInXATQY8C-33" target="Mxa73cPTpktInXATQY8C-23" edge="1">
          <mxGeometry width="50" height="50" relative="1" as="geometry">
            <mxPoint x="-30" y="900" as="sourcePoint" />
            <mxPoint x="20" y="850" as="targetPoint" />
          </mxGeometry>
        </mxCell>
        <mxCell id="Ux04ODfgkNfyYsIB9h4a-20" value="" style="endArrow=none;html=1;entryX=0;entryY=0.5;entryDx=0;entryDy=0;exitX=-0.008;exitY=0.024;exitDx=0;exitDy=0;exitPerimeter=0;" parent="1" source="Mxa73cPTpktInXATQY8C-23" target="Mxa73cPTpktInXATQY8C-42" edge="1">
          <mxGeometry width="50" height="50" relative="1" as="geometry">
            <mxPoint x="193" y="660" as="sourcePoint" />
            <mxPoint x="250" y="700" as="targetPoint" />
          </mxGeometry>
        </mxCell>
        <mxCell id="Ux04ODfgkNfyYsIB9h4a-21" value="" style="endArrow=none;html=1;entryX=0.406;entryY=0.211;entryDx=0;entryDy=0;entryPerimeter=0;exitX=0;exitY=0.5;exitDx=0;exitDy=0;" parent="1" source="Mxa73cPTpktInXATQY8C-39" target="Mxa73cPTpktInXATQY8C-23" edge="1">
          <mxGeometry width="50" height="50" relative="1" as="geometry">
            <mxPoint x="190" y="740" as="sourcePoint" />
            <mxPoint x="240" y="690" as="targetPoint" />
          </mxGeometry>
        </mxCell>
        <mxCell id="Ux04ODfgkNfyYsIB9h4a-22" value="" style="endArrow=none;html=1;entryX=0.5;entryY=0;entryDx=0;entryDy=0;exitX=0;exitY=0.5;exitDx=0;exitDy=0;" parent="1" source="Mxa73cPTpktInXATQY8C-45" target="Mxa73cPTpktInXATQY8C-23" edge="1">
          <mxGeometry width="50" height="50" relative="1" as="geometry">
            <mxPoint x="170" y="750" as="sourcePoint" />
            <mxPoint x="220" y="700" as="targetPoint" />
          </mxGeometry>
        </mxCell>
        <mxCell id="Ux04ODfgkNfyYsIB9h4a-24" value="" style="endArrow=none;html=1;exitX=1;exitY=0.5;exitDx=0;exitDy=0;entryX=0;entryY=0.5;entryDx=0;entryDy=0;" parent="1" source="Mxa73cPTpktInXATQY8C-80" target="Mxa73cPTpktInXATQY8C-71" edge="1">
          <mxGeometry width="50" height="50" relative="1" as="geometry">
            <mxPoint x="520" y="830" as="sourcePoint" />
            <mxPoint x="619" y="815" as="targetPoint" />
          </mxGeometry>
        </mxCell>
        <mxCell id="Ux04ODfgkNfyYsIB9h4a-26" value="" style="endArrow=none;html=1;entryX=0;entryY=0.5;entryDx=0;entryDy=0;exitX=1;exitY=0.5;exitDx=0;exitDy=0;" parent="1" source="Mxa73cPTpktInXATQY8C-45" target="Mxa73cPTpktInXATQY8C-80" edge="1">
          <mxGeometry width="50" height="50" relative="1" as="geometry">
            <mxPoint x="340" y="890" as="sourcePoint" />
            <mxPoint x="390" y="840" as="targetPoint" />
          </mxGeometry>
        </mxCell>
        <mxCell id="Ux04ODfgkNfyYsIB9h4a-27" value="" style="endArrow=none;html=1;entryX=1;entryY=0.5;entryDx=0;entryDy=0;exitX=0;exitY=0.5;exitDx=0;exitDy=0;" parent="1" source="Mxa73cPTpktInXATQY8C-80" target="Mxa73cPTpktInXATQY8C-39" edge="1">
          <mxGeometry width="50" height="50" relative="1" as="geometry">
            <mxPoint x="430" y="800" as="sourcePoint" />
            <mxPoint x="480" y="750" as="targetPoint" />
          </mxGeometry>
        </mxCell>
        <mxCell id="Ux04ODfgkNfyYsIB9h4a-29" value="" style="endArrow=none;html=1;entryX=0;entryY=0.5;entryDx=0;entryDy=0;exitX=1;exitY=0.5;exitDx=0;exitDy=0;" parent="1" source="Mxa73cPTpktInXATQY8C-39" target="Mxa73cPTpktInXATQY8C-110" edge="1">
          <mxGeometry width="50" height="50" relative="1" as="geometry">
            <mxPoint x="450" y="750" as="sourcePoint" />
            <mxPoint x="500" y="700" as="targetPoint" />
          </mxGeometry>
        </mxCell>
        <mxCell id="Ux04ODfgkNfyYsIB9h4a-30" value="" style="endArrow=none;html=1;entryX=0;entryY=0.5;entryDx=0;entryDy=0;exitX=1;exitY=0.5;exitDx=0;exitDy=0;" parent="1" source="Mxa73cPTpktInXATQY8C-45" target="Mxa73cPTpktInXATQY8C-110" edge="1">
          <mxGeometry width="50" height="50" relative="1" as="geometry">
            <mxPoint x="380" y="700" as="sourcePoint" />
            <mxPoint x="430" y="650" as="targetPoint" />
          </mxGeometry>
        </mxCell>
        <mxCell id="Ux04ODfgkNfyYsIB9h4a-31" value="" style="endArrow=none;html=1;exitX=1;exitY=0.5;exitDx=0;exitDy=0;entryX=0;entryY=0.5;entryDx=0;entryDy=0;" parent="1" source="Mxa73cPTpktInXATQY8C-61" target="Mxa73cPTpktInXATQY8C-64" edge="1">
          <mxGeometry width="50" height="50" relative="1" as="geometry">
            <mxPoint x="780" y="340" as="sourcePoint" />
            <mxPoint x="830" y="290" as="targetPoint" />
          </mxGeometry>
        </mxCell>
        <mxCell id="Ux04ODfgkNfyYsIB9h4a-32" value="" style="endArrow=none;html=1;exitX=1;exitY=0;exitDx=0;exitDy=0;" parent="1" source="Mxa73cPTpktInXATQY8C-64" edge="1">
          <mxGeometry width="50" height="50" relative="1" as="geometry">
            <mxPoint x="930" y="290" as="sourcePoint" />
            <mxPoint x="1060" y="190" as="targetPoint" />
          </mxGeometry>
        </mxCell>
        <mxCell id="Ux04ODfgkNfyYsIB9h4a-33" value="" style="endArrow=none;html=1;entryX=0;entryY=0.5;entryDx=0;entryDy=0;exitX=1;exitY=0.5;exitDx=0;exitDy=0;" parent="1" source="Mxa73cPTpktInXATQY8C-5" target="Mxa73cPTpktInXATQY8C-12" edge="1">
          <mxGeometry width="50" height="50" relative="1" as="geometry">
            <mxPoint x="760" y="200" as="sourcePoint" />
            <mxPoint x="810" y="150" as="targetPoint" />
          </mxGeometry>
        </mxCell>
        <mxCell id="Ux04ODfgkNfyYsIB9h4a-34" value="" style="endArrow=none;html=1;entryX=0;entryY=0.5;entryDx=0;entryDy=0;exitX=1;exitY=0.5;exitDx=0;exitDy=0;" parent="1" source="Mxa73cPTpktInXATQY8C-12" target="Mxa73cPTpktInXATQY8C-10" edge="1">
          <mxGeometry width="50" height="50" relative="1" as="geometry">
            <mxPoint x="920" y="170" as="sourcePoint" />
            <mxPoint x="970" y="120" as="targetPoint" />
          </mxGeometry>
        </mxCell>
        <mxCell id="Ux04ODfgkNfyYsIB9h4a-35" value="" style="endArrow=none;html=1;entryX=0;entryY=1;entryDx=0;entryDy=0;exitX=1;exitY=0;exitDx=0;exitDy=0;" parent="1" source="Mxa73cPTpktInXATQY8C-55" target="Mxa73cPTpktInXATQY8C-52" edge="1">
          <mxGeometry width="50" height="50" relative="1" as="geometry">
            <mxPoint x="860" y="50" as="sourcePoint" />
            <mxPoint x="910" as="targetPoint" />
          </mxGeometry>
        </mxCell>
        <mxCell id="Ux04ODfgkNfyYsIB9h4a-36" value="" style="endArrow=none;html=1;entryX=0;entryY=1;entryDx=0;entryDy=0;exitX=1;exitY=0;exitDx=0;exitDy=0;" parent="1" source="Mxa73cPTpktInXATQY8C-5" target="Mxa73cPTpktInXATQY8C-55" edge="1">
          <mxGeometry width="50" height="50" relative="1" as="geometry">
            <mxPoint x="710" y="120" as="sourcePoint" />
            <mxPoint x="760" y="70" as="targetPoint" />
          </mxGeometry>
        </mxCell>
        <mxCell id="Ux04ODfgkNfyYsIB9h4a-37" value="" style="endArrow=none;html=1;entryX=0.5;entryY=1;entryDx=0;entryDy=0;exitX=0.5;exitY=0;exitDx=0;exitDy=0;" parent="1" source="Mxa73cPTpktInXATQY8C-110" target="Mxa73cPTpktInXATQY8C-61" edge="1">
          <mxGeometry width="50" height="50" relative="1" as="geometry">
            <mxPoint x="640" y="590" as="sourcePoint" />
            <mxPoint x="690" y="540" as="targetPoint" />
          </mxGeometry>
        </mxCell>
        <mxCell id="Ux04ODfgkNfyYsIB9h4a-38" value="" style="endArrow=none;html=1;entryX=0.5;entryY=1;entryDx=0;entryDy=0;exitX=1;exitY=0;exitDx=0;exitDy=0;" parent="1" source="Mxa73cPTpktInXATQY8C-91" target="Mxa73cPTpktInXATQY8C-61" edge="1">
          <mxGeometry width="50" height="50" relative="1" as="geometry">
            <mxPoint x="340" y="520" as="sourcePoint" />
            <mxPoint x="390" y="470" as="targetPoint" />
          </mxGeometry>
        </mxCell>
        <mxCell id="Ux04ODfgkNfyYsIB9h4a-39" value="" style="endArrow=none;html=1;entryX=0;entryY=1;entryDx=0;entryDy=0;exitX=0;exitY=0.5;exitDx=0;exitDy=0;" parent="1" source="Mxa73cPTpktInXATQY8C-153" target="Mxa73cPTpktInXATQY8C-91" edge="1">
          <mxGeometry width="50" height="50" relative="1" as="geometry">
            <mxPoint x="330" y="510" as="sourcePoint" />
            <mxPoint x="380" y="460" as="targetPoint" />
          </mxGeometry>
        </mxCell>
        <mxCell id="Ux04ODfgkNfyYsIB9h4a-40" value="" style="endArrow=none;html=1;entryX=0.5;entryY=1;entryDx=0;entryDy=0;exitX=0.5;exitY=0;exitDx=0;exitDy=0;" parent="1" source="Mxa73cPTpktInXATQY8C-50" target="Mxa73cPTpktInXATQY8C-48" edge="1">
          <mxGeometry width="50" height="50" relative="1" as="geometry">
            <mxPoint x="630" y="20" as="sourcePoint" />
            <mxPoint x="680" y="-30" as="targetPoint" />
          </mxGeometry>
        </mxCell>
        <mxCell id="Ux04ODfgkNfyYsIB9h4a-41" value="" style="endArrow=none;html=1;entryX=0.5;entryY=1;entryDx=0;entryDy=0;exitX=0.5;exitY=0;exitDx=0;exitDy=0;" parent="1" source="Mxa73cPTpktInXATQY8C-5" target="Mxa73cPTpktInXATQY8C-50" edge="1">
          <mxGeometry width="50" height="50" relative="1" as="geometry">
            <mxPoint x="520" y="110" as="sourcePoint" />
            <mxPoint x="570" y="60" as="targetPoint" />
          </mxGeometry>
        </mxCell>
        <mxCell id="Ux04ODfgkNfyYsIB9h4a-42" value="" style="endArrow=none;html=1;entryX=0;entryY=0.5;entryDx=0;entryDy=0;exitX=1;exitY=0.5;exitDx=0;exitDy=0;" parent="1" source="Mxa73cPTpktInXATQY8C-1" target="Mxa73cPTpktInXATQY8C-3" edge="1">
          <mxGeometry width="50" height="50" relative="1" as="geometry">
            <mxPoint x="240" y="170" as="sourcePoint" />
            <mxPoint x="290" y="120" as="targetPoint" />
          </mxGeometry>
        </mxCell>
        <mxCell id="Ux04ODfgkNfyYsIB9h4a-43" value="" style="endArrow=none;html=1;entryX=0;entryY=0.5;entryDx=0;entryDy=0;exitX=1;exitY=0.5;exitDx=0;exitDy=0;" parent="1" source="Mxa73cPTpktInXATQY8C-3" target="Mxa73cPTpktInXATQY8C-5" edge="1">
          <mxGeometry width="50" height="50" relative="1" as="geometry">
            <mxPoint x="450" y="180" as="sourcePoint" />
            <mxPoint x="500" y="130" as="targetPoint" />
          </mxGeometry>
        </mxCell>
        <mxCell id="lt1MG_Y_J4A6Yb-XciJY-109" style="edgeStyle=none;rounded=0;orthogonalLoop=1;jettySize=auto;html=1;exitX=1;exitY=0;exitDx=0;exitDy=0;endArrow=none;endFill=0;" edge="1" parent="1" source="Ux04ODfgkNfyYsIB9h4a-47" target="lt1MG_Y_J4A6Yb-XciJY-110">
          <mxGeometry relative="1" as="geometry">
            <mxPoint x="220" y="270" as="targetPoint" />
          </mxGeometry>
        </mxCell>
        <mxCell id="lt1MG_Y_J4A6Yb-XciJY-116" style="edgeStyle=none;rounded=0;orthogonalLoop=1;jettySize=auto;html=1;exitX=1;exitY=1;exitDx=0;exitDy=0;endArrow=none;endFill=0;" edge="1" parent="1" source="Ux04ODfgkNfyYsIB9h4a-47" target="lt1MG_Y_J4A6Yb-XciJY-117">
          <mxGeometry relative="1" as="geometry">
            <mxPoint x="240" y="370" as="targetPoint" />
          </mxGeometry>
        </mxCell>
        <mxCell id="Ux04ODfgkNfyYsIB9h4a-47" value="participa" style="rhombus;whiteSpace=wrap;html=1;" parent="1" vertex="1">
          <mxGeometry x="126" y="285.13" width="70" height="70" as="geometry" />
        </mxCell>
        <mxCell id="Ux04ODfgkNfyYsIB9h4a-49" value="" style="endArrow=none;html=1;entryX=0.5;entryY=1;entryDx=0;entryDy=0;exitX=0.5;exitY=0;exitDx=0;exitDy=0;" parent="1" source="Mxa73cPTpktInXATQY8C-24" target="Mxa73cPTpktInXATQY8C-19" edge="1">
          <mxGeometry width="50" height="50" relative="1" as="geometry">
            <mxPoint x="80" y="620" as="sourcePoint" />
            <mxPoint x="130" y="570" as="targetPoint" />
          </mxGeometry>
        </mxCell>
        <mxCell id="Ux04ODfgkNfyYsIB9h4a-50" value="" style="endArrow=none;html=1;entryX=0.5;entryY=1;entryDx=0;entryDy=0;exitX=0;exitY=0.5;exitDx=0;exitDy=0;" parent="1" source="Mxa73cPTpktInXATQY8C-23" target="Mxa73cPTpktInXATQY8C-24" edge="1">
          <mxGeometry width="50" height="50" relative="1" as="geometry">
            <mxPoint x="70" y="640" as="sourcePoint" />
            <mxPoint x="120" y="590" as="targetPoint" />
          </mxGeometry>
        </mxCell>
        <mxCell id="Ux04ODfgkNfyYsIB9h4a-51" value="" style="endArrow=none;html=1;entryX=0.5;entryY=0;entryDx=0;entryDy=0;exitX=0.5;exitY=1;exitDx=0;exitDy=0;" parent="1" source="Mxa73cPTpktInXATQY8C-1" target="Ux04ODfgkNfyYsIB9h4a-47" edge="1">
          <mxGeometry width="50" height="50" relative="1" as="geometry">
            <mxPoint x="-240" y="540" as="sourcePoint" />
            <mxPoint x="-190" y="490" as="targetPoint" />
          </mxGeometry>
        </mxCell>
        <mxCell id="Ux04ODfgkNfyYsIB9h4a-52" value="" style="endArrow=none;html=1;entryX=0.5;entryY=0;entryDx=0;entryDy=0;exitX=0.5;exitY=1;exitDx=0;exitDy=0;" parent="1" source="Ux04ODfgkNfyYsIB9h4a-47" target="Mxa73cPTpktInXATQY8C-19" edge="1">
          <mxGeometry width="50" height="50" relative="1" as="geometry">
            <mxPoint y="530" as="sourcePoint" />
            <mxPoint x="50" y="480" as="targetPoint" />
          </mxGeometry>
        </mxCell>
        <mxCell id="Ux04ODfgkNfyYsIB9h4a-57" value="" style="endArrow=none;html=1;entryX=0.5;entryY=1;entryDx=0;entryDy=0;exitX=0.5;exitY=0;exitDx=0;exitDy=0;" parent="1" source="Mxa73cPTpktInXATQY8C-63" target="Mxa73cPTpktInXATQY8C-5" edge="1">
          <mxGeometry width="50" height="50" relative="1" as="geometry">
            <mxPoint x="530" y="290" as="sourcePoint" />
            <mxPoint x="580" y="240" as="targetPoint" />
          </mxGeometry>
        </mxCell>
        <mxCell id="Ux04ODfgkNfyYsIB9h4a-58" value="" style="endArrow=none;html=1;entryX=0.5;entryY=1;entryDx=0;entryDy=0;exitX=0.5;exitY=0;exitDx=0;exitDy=0;" parent="1" source="Mxa73cPTpktInXATQY8C-61" target="Mxa73cPTpktInXATQY8C-63" edge="1">
          <mxGeometry width="50" height="50" relative="1" as="geometry">
            <mxPoint x="510" y="360" as="sourcePoint" />
            <mxPoint x="560" y="310" as="targetPoint" />
          </mxGeometry>
        </mxCell>
        <mxCell id="lt1MG_Y_J4A6Yb-XciJY-7" value="(1,n)" style="text;html=1;strokeColor=none;fillColor=none;align=center;verticalAlign=middle;whiteSpace=wrap;rounded=0;" vertex="1" parent="1">
          <mxGeometry x="170" y="840" width="40" height="20" as="geometry" />
        </mxCell>
        <mxCell id="lt1MG_Y_J4A6Yb-XciJY-8" value="(1,n)" style="text;html=1;strokeColor=none;fillColor=none;align=center;verticalAlign=middle;whiteSpace=wrap;rounded=0;" vertex="1" parent="1">
          <mxGeometry x="710" y="370" width="40" height="20" as="geometry" />
        </mxCell>
        <mxCell id="lt1MG_Y_J4A6Yb-XciJY-11" value="" style="ellipse;whiteSpace=wrap;html=1;" vertex="1" parent="1">
          <mxGeometry x="-400" y="580" width="70" height="20" as="geometry" />
        </mxCell>
        <mxCell id="lt1MG_Y_J4A6Yb-XciJY-12" value="&lt;u&gt;entrada_Id&lt;/u&gt;" style="text;html=1;strokeColor=none;fillColor=none;align=center;verticalAlign=middle;whiteSpace=wrap;rounded=0;" vertex="1" parent="1">
          <mxGeometry x="-386.5" y="581.25" width="40" height="20" as="geometry" />
        </mxCell>
        <mxCell id="lt1MG_Y_J4A6Yb-XciJY-14" value="" style="ellipse;whiteSpace=wrap;html=1;" vertex="1" parent="1">
          <mxGeometry x="-320" y="580" width="80" height="20" as="geometry" />
        </mxCell>
        <mxCell id="lt1MG_Y_J4A6Yb-XciJY-15" value="formato" style="text;html=1;strokeColor=none;fillColor=none;align=center;verticalAlign=middle;whiteSpace=wrap;rounded=0;" vertex="1" parent="1">
          <mxGeometry x="-300" y="578.75" width="40" height="20" as="geometry" />
        </mxCell>
        <mxCell id="lt1MG_Y_J4A6Yb-XciJY-17" value="" style="ellipse;whiteSpace=wrap;html=1;" vertex="1" parent="1">
          <mxGeometry x="-370" y="530" width="100" height="30" as="geometry" />
        </mxCell>
        <mxCell id="lt1MG_Y_J4A6Yb-XciJY-18" value="categoria" style="text;html=1;strokeColor=none;fillColor=none;align=center;verticalAlign=middle;whiteSpace=wrap;rounded=0;" vertex="1" parent="1">
          <mxGeometry x="-340" y="535" width="40" height="20" as="geometry" />
        </mxCell>
        <mxCell id="lt1MG_Y_J4A6Yb-XciJY-20" value="" style="ellipse;whiteSpace=wrap;html=1;" vertex="1" parent="1">
          <mxGeometry x="-470" y="590" width="70" height="20" as="geometry" />
        </mxCell>
        <mxCell id="lt1MG_Y_J4A6Yb-XciJY-21" value="precio" style="text;html=1;strokeColor=none;fillColor=none;align=center;verticalAlign=middle;whiteSpace=wrap;rounded=0;" vertex="1" parent="1">
          <mxGeometry x="-450" y="590" width="40" height="20" as="geometry" />
        </mxCell>
        <mxCell id="lt1MG_Y_J4A6Yb-XciJY-23" value="" style="ellipse;whiteSpace=wrap;html=1;" vertex="1" parent="1">
          <mxGeometry x="-260" y="555" width="120" height="30" as="geometry" />
        </mxCell>
        <mxCell id="lt1MG_Y_J4A6Yb-XciJY-24" value="plazo_devolucion" style="text;html=1;strokeColor=none;fillColor=none;align=center;verticalAlign=middle;whiteSpace=wrap;rounded=0;" vertex="1" parent="1">
          <mxGeometry x="-220" y="558.75" width="40" height="20" as="geometry" />
        </mxCell>
        <mxCell id="lt1MG_Y_J4A6Yb-XciJY-27" value="" style="ellipse;whiteSpace=wrap;html=1;" vertex="1" parent="1">
          <mxGeometry x="-490" y="640" width="90" height="40" as="geometry" />
        </mxCell>
        <mxCell id="lt1MG_Y_J4A6Yb-XciJY-28" value="fecha_compra" style="text;html=1;strokeColor=none;fillColor=none;align=center;verticalAlign=middle;whiteSpace=wrap;rounded=0;" vertex="1" parent="1">
          <mxGeometry x="-465" y="650" width="40" height="20" as="geometry" />
        </mxCell>
        <mxCell id="lt1MG_Y_J4A6Yb-XciJY-35" value="" style="ellipse;whiteSpace=wrap;html=1;" vertex="1" parent="1">
          <mxGeometry x="40" y="70" width="60" height="30" as="geometry" />
        </mxCell>
        <mxCell id="lt1MG_Y_J4A6Yb-XciJY-36" value="cartel_id" style="text;html=1;strokeColor=none;fillColor=none;align=center;verticalAlign=middle;whiteSpace=wrap;rounded=0;" vertex="1" parent="1">
          <mxGeometry x="50" y="75" width="40" height="20" as="geometry" />
        </mxCell>
        <mxCell id="lt1MG_Y_J4A6Yb-XciJY-37" value="" style="ellipse;whiteSpace=wrap;html=1;" vertex="1" parent="1">
          <mxGeometry x="70" y="40" width="65" height="30" as="geometry" />
        </mxCell>
        <mxCell id="lt1MG_Y_J4A6Yb-XciJY-38" value="fechaInicio" style="text;html=1;strokeColor=none;fillColor=none;align=center;verticalAlign=middle;whiteSpace=wrap;rounded=0;" vertex="1" parent="1">
          <mxGeometry x="86" y="45" width="40" height="20" as="geometry" />
        </mxCell>
        <mxCell id="lt1MG_Y_J4A6Yb-XciJY-39" value="" style="ellipse;whiteSpace=wrap;html=1;" vertex="1" parent="1">
          <mxGeometry x="105" y="15" width="70" height="20" as="geometry" />
        </mxCell>
        <mxCell id="lt1MG_Y_J4A6Yb-XciJY-40" value="fechaFin" style="text;html=1;strokeColor=none;fillColor=none;align=center;verticalAlign=middle;whiteSpace=wrap;rounded=0;" vertex="1" parent="1">
          <mxGeometry x="120" y="15" width="40" height="20" as="geometry" />
        </mxCell>
        <mxCell id="lt1MG_Y_J4A6Yb-XciJY-41" value="" style="ellipse;whiteSpace=wrap;html=1;" vertex="1" parent="1">
          <mxGeometry x="175" y="15" width="70" height="20" as="geometry" />
        </mxCell>
        <mxCell id="lt1MG_Y_J4A6Yb-XciJY-42" value="ubicacion" style="text;html=1;strokeColor=none;fillColor=none;align=center;verticalAlign=middle;whiteSpace=wrap;rounded=0;" vertex="1" parent="1">
          <mxGeometry x="189" y="15" width="40" height="20" as="geometry" />
        </mxCell>
        <mxCell id="lt1MG_Y_J4A6Yb-XciJY-43" value="" style="ellipse;whiteSpace=wrap;html=1;" vertex="1" parent="1">
          <mxGeometry x="245" y="15" width="90" height="30" as="geometry" />
        </mxCell>
        <mxCell id="lt1MG_Y_J4A6Yb-XciJY-44" value="presupuesto" style="text;html=1;strokeColor=none;fillColor=none;align=center;verticalAlign=middle;whiteSpace=wrap;rounded=0;" vertex="1" parent="1">
          <mxGeometry x="270" y="20" width="40" height="20" as="geometry" />
        </mxCell>
        <mxCell id="lt1MG_Y_J4A6Yb-XciJY-45" value="" style="ellipse;whiteSpace=wrap;html=1;" vertex="1" parent="1">
          <mxGeometry x="329" y="40" width="50" height="20" as="geometry" />
        </mxCell>
        <mxCell id="lt1MG_Y_J4A6Yb-XciJY-46" value="titulo" style="text;html=1;strokeColor=none;fillColor=none;align=center;verticalAlign=middle;whiteSpace=wrap;rounded=0;" vertex="1" parent="1">
          <mxGeometry x="334" y="40" width="40" height="20" as="geometry" />
        </mxCell>
        <mxCell id="lt1MG_Y_J4A6Yb-XciJY-55" value="" style="ellipse;whiteSpace=wrap;html=1;" vertex="1" parent="1">
          <mxGeometry x="447" y="110" width="63" height="30" as="geometry" />
        </mxCell>
        <mxCell id="lt1MG_Y_J4A6Yb-XciJY-56" value="&lt;u&gt;artista_id&lt;/u&gt;" style="text;html=1;strokeColor=none;fillColor=none;align=center;verticalAlign=middle;whiteSpace=wrap;rounded=0;" vertex="1" parent="1">
          <mxGeometry x="458.5" y="115" width="40" height="20" as="geometry" />
        </mxCell>
        <mxCell id="lt1MG_Y_J4A6Yb-XciJY-57" value="" style="ellipse;whiteSpace=wrap;html=1;" vertex="1" parent="1">
          <mxGeometry x="440" y="75" width="50" height="30" as="geometry" />
        </mxCell>
        <mxCell id="lt1MG_Y_J4A6Yb-XciJY-58" value="genero" style="text;html=1;strokeColor=none;fillColor=none;align=center;verticalAlign=middle;whiteSpace=wrap;rounded=0;" vertex="1" parent="1">
          <mxGeometry x="445" y="80" width="40" height="20" as="geometry" />
        </mxCell>
        <mxCell id="lt1MG_Y_J4A6Yb-XciJY-59" value="" style="ellipse;whiteSpace=wrap;html=1;" vertex="1" parent="1">
          <mxGeometry x="450" y="40" width="40" height="30" as="geometry" />
        </mxCell>
        <mxCell id="lt1MG_Y_J4A6Yb-XciJY-60" value="edad" style="text;html=1;strokeColor=none;fillColor=none;align=center;verticalAlign=middle;whiteSpace=wrap;rounded=0;" vertex="1" parent="1">
          <mxGeometry x="450" y="45" width="40" height="20" as="geometry" />
        </mxCell>
        <mxCell id="lt1MG_Y_J4A6Yb-XciJY-61" value="" style="ellipse;whiteSpace=wrap;html=1;" vertex="1" parent="1">
          <mxGeometry x="450" y="10" width="60" height="20" as="geometry" />
        </mxCell>
        <mxCell id="lt1MG_Y_J4A6Yb-XciJY-62" value="nombre" style="text;html=1;strokeColor=none;fillColor=none;align=center;verticalAlign=middle;whiteSpace=wrap;rounded=0;" vertex="1" parent="1">
          <mxGeometry x="458.5" y="10" width="40" height="20" as="geometry" />
        </mxCell>
        <mxCell id="lt1MG_Y_J4A6Yb-XciJY-63" value="" style="ellipse;whiteSpace=wrap;html=1;" vertex="1" parent="1">
          <mxGeometry x="490" y="-20" width="50" height="20" as="geometry" />
        </mxCell>
        <mxCell id="lt1MG_Y_J4A6Yb-XciJY-64" value="precio" style="text;html=1;strokeColor=none;fillColor=none;align=center;verticalAlign=middle;whiteSpace=wrap;rounded=0;" vertex="1" parent="1">
          <mxGeometry x="499" y="-20" width="32" height="20" as="geometry" />
        </mxCell>
        <mxCell id="lt1MG_Y_J4A6Yb-XciJY-65" value="" style="ellipse;whiteSpace=wrap;html=1;" vertex="1" parent="1">
          <mxGeometry x="540" y="-50" width="40" height="30" as="geometry" />
        </mxCell>
        <mxCell id="lt1MG_Y_J4A6Yb-XciJY-66" value="cache" style="text;html=1;strokeColor=none;fillColor=none;align=center;verticalAlign=middle;whiteSpace=wrap;rounded=0;" vertex="1" parent="1">
          <mxGeometry x="540" y="-45" width="37" height="20" as="geometry" />
        </mxCell>
        <mxCell id="lt1MG_Y_J4A6Yb-XciJY-73" value="" style="ellipse;whiteSpace=wrap;html=1;" vertex="1" parent="1">
          <mxGeometry x="935" y="45" width="90" height="30" as="geometry" />
        </mxCell>
        <mxCell id="lt1MG_Y_J4A6Yb-XciJY-74" value="&lt;u&gt;backstage_id&lt;/u&gt;" style="text;html=1;strokeColor=none;fillColor=none;align=center;verticalAlign=middle;whiteSpace=wrap;rounded=0;" vertex="1" parent="1">
          <mxGeometry x="960" y="50" width="40" height="20" as="geometry" />
        </mxCell>
        <mxCell id="lt1MG_Y_J4A6Yb-XciJY-75" value="" style="ellipse;whiteSpace=wrap;html=1;" vertex="1" parent="1">
          <mxGeometry x="1000" y="10" width="50" height="25" as="geometry" />
        </mxCell>
        <mxCell id="lt1MG_Y_J4A6Yb-XciJY-76" value="gasto" style="text;html=1;strokeColor=none;fillColor=none;align=center;verticalAlign=middle;whiteSpace=wrap;rounded=0;" vertex="1" parent="1">
          <mxGeometry x="1005" y="10" width="40" height="20" as="geometry" />
        </mxCell>
        <mxCell id="lt1MG_Y_J4A6Yb-XciJY-77" value="" style="ellipse;whiteSpace=wrap;html=1;" vertex="1" parent="1">
          <mxGeometry x="1060" y="10" width="80" height="30" as="geometry" />
        </mxCell>
        <mxCell id="lt1MG_Y_J4A6Yb-XciJY-78" value="numMesas" style="text;html=1;strokeColor=none;fillColor=none;align=center;verticalAlign=middle;whiteSpace=wrap;rounded=0;" vertex="1" parent="1">
          <mxGeometry x="1080" y="15" width="40" height="20" as="geometry" />
        </mxCell>
        <mxCell id="lt1MG_Y_J4A6Yb-XciJY-79" value="" style="ellipse;whiteSpace=wrap;html=1;" vertex="1" parent="1">
          <mxGeometry x="1140" y="20" width="60" height="30" as="geometry" />
        </mxCell>
        <mxCell id="lt1MG_Y_J4A6Yb-XciJY-80" value="tamaño" style="text;html=1;strokeColor=none;fillColor=none;align=center;verticalAlign=middle;whiteSpace=wrap;rounded=0;" vertex="1" parent="1">
          <mxGeometry x="1150" y="25" width="40" height="20" as="geometry" />
        </mxCell>
        <mxCell id="lt1MG_Y_J4A6Yb-XciJY-85" value="" style="ellipse;whiteSpace=wrap;html=1;" vertex="1" parent="1">
          <mxGeometry x="465" y="280" width="80" height="32.5" as="geometry" />
        </mxCell>
        <mxCell id="lt1MG_Y_J4A6Yb-XciJY-86" value="&lt;u&gt;escenario_id&lt;/u&gt;" style="text;html=1;strokeColor=none;fillColor=none;align=center;verticalAlign=middle;whiteSpace=wrap;rounded=0;" vertex="1" parent="1">
          <mxGeometry x="487" y="285" width="40" height="20" as="geometry" />
        </mxCell>
        <mxCell id="lt1MG_Y_J4A6Yb-XciJY-87" value="" style="ellipse;whiteSpace=wrap;html=1;" vertex="1" parent="1">
          <mxGeometry x="450" y="312.5" width="77" height="27.5" as="geometry" />
        </mxCell>
        <mxCell id="lt1MG_Y_J4A6Yb-XciJY-88" value="extension" style="text;html=1;strokeColor=none;fillColor=none;align=center;verticalAlign=middle;whiteSpace=wrap;rounded=0;" vertex="1" parent="1">
          <mxGeometry x="470" y="316.25" width="40" height="20" as="geometry" />
        </mxCell>
        <mxCell id="lt1MG_Y_J4A6Yb-XciJY-89" value="" style="ellipse;whiteSpace=wrap;html=1;" vertex="1" parent="1">
          <mxGeometry x="458.5" y="350" width="40" height="30" as="geometry" />
        </mxCell>
        <mxCell id="lt1MG_Y_J4A6Yb-XciJY-90" value="tipo" style="text;html=1;strokeColor=none;fillColor=none;align=center;verticalAlign=middle;whiteSpace=wrap;rounded=0;" vertex="1" parent="1">
          <mxGeometry x="457" y="355" width="40" height="20" as="geometry" />
        </mxCell>
        <mxCell id="lt1MG_Y_J4A6Yb-XciJY-91" value="" style="ellipse;whiteSpace=wrap;html=1;" vertex="1" parent="1">
          <mxGeometry x="447" y="390" width="70" height="20" as="geometry" />
        </mxCell>
        <mxCell id="lt1MG_Y_J4A6Yb-XciJY-92" value="gasto" style="text;html=1;strokeColor=none;fillColor=none;align=center;verticalAlign=middle;whiteSpace=wrap;rounded=0;" vertex="1" parent="1">
          <mxGeometry x="464" y="390" width="40" height="20" as="geometry" />
        </mxCell>
        <mxCell id="lt1MG_Y_J4A6Yb-XciJY-100" value="" style="ellipse;whiteSpace=wrap;html=1;" vertex="1" parent="1">
          <mxGeometry x="-70" y="480" width="90" height="30" as="geometry" />
        </mxCell>
        <mxCell id="lt1MG_Y_J4A6Yb-XciJY-101" value="&lt;u&gt;empresa_id&lt;/u&gt;" style="text;html=1;strokeColor=none;fillColor=none;align=center;verticalAlign=middle;whiteSpace=wrap;rounded=0;" vertex="1" parent="1">
          <mxGeometry x="-45" y="485" width="40" height="20" as="geometry" />
        </mxCell>
        <mxCell id="lt1MG_Y_J4A6Yb-XciJY-102" value="" style="ellipse;whiteSpace=wrap;html=1;" vertex="1" parent="1">
          <mxGeometry x="-60" y="440" width="80" height="30" as="geometry" />
        </mxCell>
        <mxCell id="lt1MG_Y_J4A6Yb-XciJY-103" value="telefono" style="text;html=1;strokeColor=none;fillColor=none;align=center;verticalAlign=middle;whiteSpace=wrap;rounded=0;" vertex="1" parent="1">
          <mxGeometry x="-40" y="445" width="40" height="20" as="geometry" />
        </mxCell>
        <mxCell id="lt1MG_Y_J4A6Yb-XciJY-104" value="" style="ellipse;whiteSpace=wrap;html=1;" vertex="1" parent="1">
          <mxGeometry x="-50" y="400" width="70" height="30" as="geometry" />
        </mxCell>
        <mxCell id="lt1MG_Y_J4A6Yb-XciJY-105" value="direccion" style="text;html=1;strokeColor=none;fillColor=none;align=center;verticalAlign=middle;whiteSpace=wrap;rounded=0;" vertex="1" parent="1">
          <mxGeometry x="-35" y="405" width="40" height="20" as="geometry" />
        </mxCell>
        <mxCell id="lt1MG_Y_J4A6Yb-XciJY-106" value="" style="ellipse;whiteSpace=wrap;html=1;" vertex="1" parent="1">
          <mxGeometry x="-5" y="370" width="70" height="30" as="geometry" />
        </mxCell>
        <mxCell id="lt1MG_Y_J4A6Yb-XciJY-107" value="trabajadores" style="text;html=1;strokeColor=none;fillColor=none;align=center;verticalAlign=middle;whiteSpace=wrap;rounded=0;" vertex="1" parent="1">
          <mxGeometry x="10" y="375" width="40" height="20" as="geometry" />
        </mxCell>
        <mxCell id="lt1MG_Y_J4A6Yb-XciJY-108" value="" style="ellipse;whiteSpace=wrap;html=1;" vertex="1" parent="1">
          <mxGeometry x="5" y="305" width="90" height="40" as="geometry" />
        </mxCell>
        <mxCell id="lt1MG_Y_J4A6Yb-XciJY-110" value="" style="ellipse;whiteSpace=wrap;html=1;" vertex="1" parent="1">
          <mxGeometry x="190" y="270" width="150" height="40" as="geometry" />
        </mxCell>
        <mxCell id="lt1MG_Y_J4A6Yb-XciJY-111" value="trabajadores_contratados" style="text;html=1;strokeColor=none;fillColor=none;align=center;verticalAlign=middle;whiteSpace=wrap;rounded=0;" vertex="1" parent="1">
          <mxGeometry x="250" y="280" width="40" height="20" as="geometry" />
        </mxCell>
        <mxCell id="lt1MG_Y_J4A6Yb-XciJY-114" value="nombre_director" style="text;html=1;strokeColor=none;fillColor=none;align=center;verticalAlign=middle;whiteSpace=wrap;rounded=0;" vertex="1" parent="1">
          <mxGeometry x="30" y="316.25" width="40" height="20" as="geometry" />
        </mxCell>
        <mxCell id="lt1MG_Y_J4A6Yb-XciJY-117" value="" style="ellipse;whiteSpace=wrap;html=1;" vertex="1" parent="1">
          <mxGeometry x="230" y="360" width="70" height="20" as="geometry" />
        </mxCell>
        <mxCell id="lt1MG_Y_J4A6Yb-XciJY-118" value="gasto" style="text;html=1;strokeColor=none;fillColor=none;align=center;verticalAlign=middle;whiteSpace=wrap;rounded=0;" vertex="1" parent="1">
          <mxGeometry x="245" y="360" width="40" height="20" as="geometry" />
        </mxCell>
        <mxCell id="lt1MG_Y_J4A6Yb-XciJY-120" value="" style="ellipse;whiteSpace=wrap;html=1;" vertex="1" parent="1">
          <mxGeometry x="-40" y="520" width="70" height="30" as="geometry" />
        </mxCell>
        <mxCell id="lt1MG_Y_J4A6Yb-XciJY-121" value="nombre" style="text;html=1;strokeColor=none;fillColor=none;align=center;verticalAlign=middle;whiteSpace=wrap;rounded=0;" vertex="1" parent="1">
          <mxGeometry x="-25" y="525" width="40" height="20" as="geometry" />
        </mxCell>
        <mxCell id="lt1MG_Y_J4A6Yb-XciJY-123" value="N:M" style="text;html=1;strokeColor=none;fillColor=none;align=center;verticalAlign=middle;whiteSpace=wrap;rounded=0;" vertex="1" parent="1">
          <mxGeometry x="105" y="285" width="40" height="20" as="geometry" />
        </mxCell>
        <mxCell id="lt1MG_Y_J4A6Yb-XciJY-128" value="" style="ellipse;whiteSpace=wrap;html=1;" vertex="1" parent="1">
          <mxGeometry x="-100" y="585" width="70" height="25" as="geometry" />
        </mxCell>
        <mxCell id="lt1MG_Y_J4A6Yb-XciJY-130" value="&lt;u&gt;empresa_id&lt;/u&gt;" style="text;html=1;strokeColor=none;fillColor=none;align=center;verticalAlign=middle;whiteSpace=wrap;rounded=0;" vertex="1" parent="1">
          <mxGeometry x="-85" y="585" width="40" height="20" as="geometry" />
        </mxCell>
        <mxCell id="lt1MG_Y_J4A6Yb-XciJY-131" value="" style="ellipse;whiteSpace=wrap;html=1;" vertex="1" parent="1">
          <mxGeometry x="-45" y="570" width="70" height="20" as="geometry" />
        </mxCell>
        <mxCell id="lt1MG_Y_J4A6Yb-XciJY-132" value="redes" style="text;html=1;strokeColor=none;fillColor=none;align=center;verticalAlign=middle;whiteSpace=wrap;rounded=0;" vertex="1" parent="1">
          <mxGeometry x="-35" y="570" width="40" height="20" as="geometry" />
        </mxCell>
        <mxCell id="lt1MG_Y_J4A6Yb-XciJY-133" value="" style="ellipse;whiteSpace=wrap;html=1;" vertex="1" parent="1">
          <mxGeometry x="30" y="568.75" width="60" height="30" as="geometry" />
        </mxCell>
        <mxCell id="lt1MG_Y_J4A6Yb-XciJY-134" value="servidor" style="text;html=1;strokeColor=none;fillColor=none;align=center;verticalAlign=middle;whiteSpace=wrap;rounded=0;" vertex="1" parent="1">
          <mxGeometry x="40" y="573.75" width="40" height="20" as="geometry" />
        </mxCell>
        <mxCell id="lt1MG_Y_J4A6Yb-XciJY-135" value="" style="ellipse;whiteSpace=wrap;html=1;" vertex="1" parent="1">
          <mxGeometry x="75" y="590" width="70" height="30" as="geometry" />
        </mxCell>
        <mxCell id="lt1MG_Y_J4A6Yb-XciJY-136" value="url" style="text;html=1;strokeColor=none;fillColor=none;align=center;verticalAlign=middle;whiteSpace=wrap;rounded=0;" vertex="1" parent="1">
          <mxGeometry x="86" y="595" width="40" height="20" as="geometry" />
        </mxCell>
        <mxCell id="lt1MG_Y_J4A6Yb-XciJY-138" value="" style="ellipse;whiteSpace=wrap;html=1;" vertex="1" parent="1">
          <mxGeometry x="-110" y="760" width="80" height="30" as="geometry" />
        </mxCell>
        <mxCell id="lt1MG_Y_J4A6Yb-XciJY-139" value="&lt;u&gt;empresa_id&lt;/u&gt;" style="text;html=1;strokeColor=none;fillColor=none;align=center;verticalAlign=middle;whiteSpace=wrap;rounded=0;" vertex="1" parent="1">
          <mxGeometry x="-90" y="765" width="40" height="20" as="geometry" />
        </mxCell>
        <mxCell id="lt1MG_Y_J4A6Yb-XciJY-141" value="" style="ellipse;whiteSpace=wrap;html=1;" vertex="1" parent="1">
          <mxGeometry x="90" y="710" width="70" height="30" as="geometry" />
        </mxCell>
        <mxCell id="lt1MG_Y_J4A6Yb-XciJY-142" value="&lt;u&gt;empresa_id&lt;/u&gt;" style="text;html=1;strokeColor=none;fillColor=none;align=center;verticalAlign=middle;whiteSpace=wrap;rounded=0;" vertex="1" parent="1">
          <mxGeometry x="105" y="715" width="40" height="20" as="geometry" />
        </mxCell>
        <mxCell id="lt1MG_Y_J4A6Yb-XciJY-144" value="" style="ellipse;whiteSpace=wrap;html=1;" vertex="1" parent="1">
          <mxGeometry x="260" y="840" width="80" height="20" as="geometry" />
        </mxCell>
        <mxCell id="lt1MG_Y_J4A6Yb-XciJY-145" value="&lt;u&gt;empresa_id&lt;/u&gt;" style="text;html=1;strokeColor=none;fillColor=none;align=center;verticalAlign=middle;whiteSpace=wrap;rounded=0;" vertex="1" parent="1">
          <mxGeometry x="280" y="840" width="40" height="20" as="geometry" />
        </mxCell>
        <mxCell id="lt1MG_Y_J4A6Yb-XciJY-147" value="" style="ellipse;whiteSpace=wrap;html=1;" vertex="1" parent="1">
          <mxGeometry x="387" y="642.5" width="70" height="30" as="geometry" />
        </mxCell>
        <mxCell id="lt1MG_Y_J4A6Yb-XciJY-148" value="&lt;u&gt;empresa_id&lt;/u&gt;" style="text;html=1;strokeColor=none;fillColor=none;align=center;verticalAlign=middle;whiteSpace=wrap;rounded=0;" vertex="1" parent="1">
          <mxGeometry x="400" y="645" width="40" height="20" as="geometry" />
        </mxCell>
        <mxCell id="lt1MG_Y_J4A6Yb-XciJY-150" value="" style="ellipse;whiteSpace=wrap;html=1;" vertex="1" parent="1">
          <mxGeometry x="260" y="590" width="85" height="30" as="geometry" />
        </mxCell>
        <mxCell id="lt1MG_Y_J4A6Yb-XciJY-151" value="&lt;u&gt;empresa_id&lt;/u&gt;" style="text;html=1;strokeColor=none;fillColor=none;align=center;verticalAlign=middle;whiteSpace=wrap;rounded=0;" vertex="1" parent="1">
          <mxGeometry x="280" y="593.75" width="40" height="20" as="geometry" />
        </mxCell>
        <mxCell id="lt1MG_Y_J4A6Yb-XciJY-153" value="" style="ellipse;whiteSpace=wrap;html=1;" vertex="1" parent="1">
          <mxGeometry x="490" y="590" width="120" height="20" as="geometry" />
        </mxCell>
        <mxCell id="lt1MG_Y_J4A6Yb-XciJY-154" value="situacion_escenario" style="text;html=1;strokeColor=none;fillColor=none;align=center;verticalAlign=middle;whiteSpace=wrap;rounded=0;" vertex="1" parent="1">
          <mxGeometry x="531" y="590" width="40" height="20" as="geometry" />
        </mxCell>
        <mxCell id="lt1MG_Y_J4A6Yb-XciJY-156" value="" style="ellipse;whiteSpace=wrap;html=1;" vertex="1" parent="1">
          <mxGeometry x="545" y="551.25" width="90" height="30" as="geometry" />
        </mxCell>
        <mxCell id="lt1MG_Y_J4A6Yb-XciJY-157" value="num_focos" style="text;html=1;strokeColor=none;fillColor=none;align=center;verticalAlign=middle;whiteSpace=wrap;rounded=0;" vertex="1" parent="1">
          <mxGeometry x="570" y="556.25" width="40" height="20" as="geometry" />
        </mxCell>
        <mxCell id="lt1MG_Y_J4A6Yb-XciJY-159" value="" style="ellipse;whiteSpace=wrap;html=1;" vertex="1" parent="1">
          <mxGeometry x="667" y="560" width="90" height="30" as="geometry" />
        </mxCell>
        <mxCell id="lt1MG_Y_J4A6Yb-XciJY-160" value="num_micros" style="text;html=1;strokeColor=none;fillColor=none;align=center;verticalAlign=middle;whiteSpace=wrap;rounded=0;" vertex="1" parent="1">
          <mxGeometry x="691.25" y="565" width="40" height="20" as="geometry" />
        </mxCell>
        <mxCell id="lt1MG_Y_J4A6Yb-XciJY-162" value="" style="ellipse;whiteSpace=wrap;html=1;" vertex="1" parent="1">
          <mxGeometry x="700" y="613.75" width="90" height="30" as="geometry" />
        </mxCell>
        <mxCell id="lt1MG_Y_J4A6Yb-XciJY-163" value="num_camaras" style="text;html=1;strokeColor=none;fillColor=none;align=center;verticalAlign=middle;whiteSpace=wrap;rounded=0;" vertex="1" parent="1">
          <mxGeometry x="725" y="617.5" width="40" height="20" as="geometry" />
        </mxCell>
        <mxCell id="lt1MG_Y_J4A6Yb-XciJY-172" value="" style="ellipse;whiteSpace=wrap;html=1;" vertex="1" parent="1">
          <mxGeometry x="510" y="730" width="110" height="30" as="geometry" />
        </mxCell>
        <mxCell id="lt1MG_Y_J4A6Yb-XciJY-173" value="&lt;u&gt;retransmision_id&lt;/u&gt;" style="text;html=1;strokeColor=none;fillColor=none;align=center;verticalAlign=middle;whiteSpace=wrap;rounded=0;" vertex="1" parent="1">
          <mxGeometry x="560" y="735" width="20" height="20" as="geometry" />
        </mxCell>
        <mxCell id="lt1MG_Y_J4A6Yb-XciJY-176" value="" style="ellipse;whiteSpace=wrap;html=1;" vertex="1" parent="1">
          <mxGeometry x="578.75" y="687.5" width="50" height="30" as="geometry" />
        </mxCell>
        <mxCell id="lt1MG_Y_J4A6Yb-XciJY-177" value="canal" style="text;html=1;strokeColor=none;fillColor=none;align=center;verticalAlign=middle;whiteSpace=wrap;rounded=0;" vertex="1" parent="1">
          <mxGeometry x="585" y="695" width="40" height="20" as="geometry" />
        </mxCell>
        <mxCell id="lt1MG_Y_J4A6Yb-XciJY-178" value="" style="ellipse;whiteSpace=wrap;html=1;" vertex="1" parent="1">
          <mxGeometry x="633.25" y="690" width="66.75" height="27.5" as="geometry" />
        </mxCell>
        <mxCell id="lt1MG_Y_J4A6Yb-XciJY-179" value="duracion" style="text;html=1;strokeColor=none;fillColor=none;align=center;verticalAlign=middle;whiteSpace=wrap;rounded=0;" vertex="1" parent="1">
          <mxGeometry x="646.63" y="693.75" width="40" height="20" as="geometry" />
        </mxCell>
        <mxCell id="lt1MG_Y_J4A6Yb-XciJY-180" value="" style="ellipse;whiteSpace=wrap;html=1;" vertex="1" parent="1">
          <mxGeometry x="690" y="657.5" width="60" height="30" as="geometry" />
        </mxCell>
        <mxCell id="lt1MG_Y_J4A6Yb-XciJY-181" value="idioma" style="text;html=1;strokeColor=none;fillColor=none;align=center;verticalAlign=middle;whiteSpace=wrap;rounded=0;" vertex="1" parent="1">
          <mxGeometry x="695.5" y="662.5" width="40" height="20" as="geometry" />
        </mxCell>
        <mxCell id="lt1MG_Y_J4A6Yb-XciJY-182" value="" style="ellipse;whiteSpace=wrap;html=1;" vertex="1" parent="1">
          <mxGeometry x="750" y="673.75" width="60" height="40" as="geometry" />
        </mxCell>
        <mxCell id="lt1MG_Y_J4A6Yb-XciJY-183" value="ingreso" style="text;html=1;strokeColor=none;fillColor=none;align=center;verticalAlign=middle;whiteSpace=wrap;rounded=0;" vertex="1" parent="1">
          <mxGeometry x="760" y="683.75" width="40" height="20" as="geometry" />
        </mxCell>
        <mxCell id="lt1MG_Y_J4A6Yb-XciJY-184" value="" style="ellipse;whiteSpace=wrap;html=1;" vertex="1" parent="1">
          <mxGeometry x="760" y="745" width="80" height="40" as="geometry" />
        </mxCell>
        <mxCell id="lt1MG_Y_J4A6Yb-XciJY-185" value="tipo" style="text;html=1;strokeColor=none;fillColor=none;align=center;verticalAlign=middle;whiteSpace=wrap;rounded=0;" vertex="1" parent="1">
          <mxGeometry x="780" y="755" width="40" height="20" as="geometry" />
        </mxCell>
        <mxCell id="lt1MG_Y_J4A6Yb-XciJY-191" value="" style="ellipse;whiteSpace=wrap;html=1;" vertex="1" parent="1">
          <mxGeometry x="500" y="-190" width="110" height="30" as="geometry" />
        </mxCell>
        <mxCell id="lt1MG_Y_J4A6Yb-XciJY-192" value="&lt;u&gt;merchandising_id&lt;/u&gt;" style="text;html=1;strokeColor=none;fillColor=none;align=center;verticalAlign=middle;whiteSpace=wrap;rounded=0;" vertex="1" parent="1">
          <mxGeometry x="535" y="-185" width="40" height="20" as="geometry" />
        </mxCell>
        <mxCell id="lt1MG_Y_J4A6Yb-XciJY-194" value="" style="ellipse;whiteSpace=wrap;html=1;" vertex="1" parent="1">
          <mxGeometry x="560" y="-230" width="70" height="30" as="geometry" />
        </mxCell>
        <mxCell id="lt1MG_Y_J4A6Yb-XciJY-195" value="producto" style="text;html=1;strokeColor=none;fillColor=none;align=center;verticalAlign=middle;whiteSpace=wrap;rounded=0;" vertex="1" parent="1">
          <mxGeometry x="575" y="-225" width="40" height="20" as="geometry" />
        </mxCell>
        <mxCell id="lt1MG_Y_J4A6Yb-XciJY-196" value="" style="ellipse;whiteSpace=wrap;html=1;" vertex="1" parent="1">
          <mxGeometry x="626.63" y="-250" width="80" height="30" as="geometry" />
        </mxCell>
        <mxCell id="lt1MG_Y_J4A6Yb-XciJY-197" value="gama" style="text;html=1;strokeColor=none;fillColor=none;align=center;verticalAlign=middle;whiteSpace=wrap;rounded=0;" vertex="1" parent="1">
          <mxGeometry x="646.63" y="-245" width="40" height="20" as="geometry" />
        </mxCell>
        <mxCell id="lt1MG_Y_J4A6Yb-XciJY-198" value="" style="ellipse;whiteSpace=wrap;html=1;" vertex="1" parent="1">
          <mxGeometry x="700" y="-225" width="70" height="35" as="geometry" />
        </mxCell>
        <mxCell id="lt1MG_Y_J4A6Yb-XciJY-199" value="ingresos" style="text;html=1;strokeColor=none;fillColor=none;align=center;verticalAlign=middle;whiteSpace=wrap;rounded=0;" vertex="1" parent="1">
          <mxGeometry x="717" y="-217.5" width="40" height="20" as="geometry" />
        </mxCell>
        <mxCell id="lt1MG_Y_J4A6Yb-XciJY-200" value="" style="ellipse;whiteSpace=wrap;html=1;" vertex="1" parent="1">
          <mxGeometry x="755" y="-190" width="50" height="30" as="geometry" />
        </mxCell>
        <mxCell id="lt1MG_Y_J4A6Yb-XciJY-201" value="talla" style="text;html=1;strokeColor=none;fillColor=none;align=center;verticalAlign=middle;whiteSpace=wrap;rounded=0;" vertex="1" parent="1">
          <mxGeometry x="755" y="-185" width="45" height="20" as="geometry" />
        </mxCell>
        <mxCell id="lt1MG_Y_J4A6Yb-XciJY-202" style="edgeStyle=none;rounded=0;orthogonalLoop=1;jettySize=auto;html=1;entryX=1;entryY=0.5;entryDx=0;entryDy=0;endArrow=none;endFill=0;" edge="1" parent="1" source="lt1MG_Y_J4A6Yb-XciJY-201" target="lt1MG_Y_J4A6Yb-XciJY-201">
          <mxGeometry relative="1" as="geometry" />
        </mxCell>
        <mxCell id="lt1MG_Y_J4A6Yb-XciJY-208" value="" style="ellipse;whiteSpace=wrap;html=1;" vertex="1" parent="1">
          <mxGeometry x="790" y="-150" width="90" height="30" as="geometry" />
        </mxCell>
        <mxCell id="lt1MG_Y_J4A6Yb-XciJY-209" value="&lt;u&gt;patrocinador_id&lt;/u&gt;" style="text;html=1;strokeColor=none;fillColor=none;align=center;verticalAlign=middle;whiteSpace=wrap;rounded=0;" vertex="1" parent="1">
          <mxGeometry x="815" y="-145" width="40" height="20" as="geometry" />
        </mxCell>
        <mxCell id="lt1MG_Y_J4A6Yb-XciJY-210" value="" style="ellipse;whiteSpace=wrap;html=1;" vertex="1" parent="1">
          <mxGeometry x="815" y="-200" width="80" height="40" as="geometry" />
        </mxCell>
        <mxCell id="lt1MG_Y_J4A6Yb-XciJY-211" value="nombre" style="text;html=1;strokeColor=none;fillColor=none;align=center;verticalAlign=middle;whiteSpace=wrap;rounded=0;" vertex="1" parent="1">
          <mxGeometry x="835" y="-190" width="40" height="20" as="geometry" />
        </mxCell>
        <mxCell id="lt1MG_Y_J4A6Yb-XciJY-212" value="" style="ellipse;whiteSpace=wrap;html=1;" vertex="1" parent="1">
          <mxGeometry x="895" y="-230" width="70" height="40" as="geometry" />
        </mxCell>
        <mxCell id="lt1MG_Y_J4A6Yb-XciJY-213" value="sector" style="text;html=1;strokeColor=none;fillColor=none;align=center;verticalAlign=middle;whiteSpace=wrap;rounded=0;" vertex="1" parent="1">
          <mxGeometry x="910" y="-220" width="40" height="20" as="geometry" />
        </mxCell>
        <mxCell id="lt1MG_Y_J4A6Yb-XciJY-214" value="" style="ellipse;whiteSpace=wrap;html=1;" vertex="1" parent="1">
          <mxGeometry x="950" y="-190" width="80" height="30" as="geometry" />
        </mxCell>
        <mxCell id="lt1MG_Y_J4A6Yb-XciJY-215" value="direccion" style="text;html=1;strokeColor=none;fillColor=none;align=center;verticalAlign=middle;whiteSpace=wrap;rounded=0;" vertex="1" parent="1">
          <mxGeometry x="970" y="-185" width="40" height="20" as="geometry" />
        </mxCell>
        <mxCell id="lt1MG_Y_J4A6Yb-XciJY-216" value="" style="ellipse;whiteSpace=wrap;html=1;" vertex="1" parent="1">
          <mxGeometry x="1010" y="-150" width="80" height="20" as="geometry" />
        </mxCell>
        <mxCell id="lt1MG_Y_J4A6Yb-XciJY-217" value="telefono" style="text;html=1;strokeColor=none;fillColor=none;align=center;verticalAlign=middle;whiteSpace=wrap;rounded=0;" vertex="1" parent="1">
          <mxGeometry x="1030" y="-150" width="40" height="20" as="geometry" />
        </mxCell>
        <mxCell id="lt1MG_Y_J4A6Yb-XciJY-220" value="" style="ellipse;whiteSpace=wrap;html=1;" vertex="1" parent="1">
          <mxGeometry x="740" y="240" width="70" height="30" as="geometry" />
        </mxCell>
        <mxCell id="lt1MG_Y_J4A6Yb-XciJY-221" value="duracion" style="text;html=1;strokeColor=none;fillColor=none;align=center;verticalAlign=middle;whiteSpace=wrap;rounded=0;" vertex="1" parent="1">
          <mxGeometry x="755" y="245" width="40" height="20" as="geometry" />
        </mxCell>
        <mxCell id="lt1MG_Y_J4A6Yb-XciJY-223" value="" style="ellipse;whiteSpace=wrap;html=1;" vertex="1" parent="1">
          <mxGeometry x="700" y="-40" width="100" height="30" as="geometry" />
        </mxCell>
        <mxCell id="lt1MG_Y_J4A6Yb-XciJY-224" value="tipoContrato" style="text;html=1;strokeColor=none;fillColor=none;align=center;verticalAlign=middle;whiteSpace=wrap;rounded=0;" vertex="1" parent="1">
          <mxGeometry x="730" y="-35" width="40" height="20" as="geometry" />
        </mxCell>
        <mxCell id="lt1MG_Y_J4A6Yb-XciJY-226" value="" style="ellipse;whiteSpace=wrap;html=1;" vertex="1" parent="1">
          <mxGeometry x="860" width="110" height="30" as="geometry" />
        </mxCell>
        <mxCell id="lt1MG_Y_J4A6Yb-XciJY-227" value="duracionContrato" style="text;html=1;strokeColor=none;fillColor=none;align=center;verticalAlign=middle;whiteSpace=wrap;rounded=0;" vertex="1" parent="1">
          <mxGeometry x="897" y="5" width="40" height="20" as="geometry" />
        </mxCell>
        <mxCell id="lt1MG_Y_J4A6Yb-XciJY-229" value="" style="ellipse;whiteSpace=wrap;html=1;" vertex="1" parent="1">
          <mxGeometry x="750" y="90" width="80" height="30" as="geometry" />
        </mxCell>
        <mxCell id="lt1MG_Y_J4A6Yb-XciJY-230" value="ingreso" style="text;html=1;strokeColor=none;fillColor=none;align=center;verticalAlign=middle;whiteSpace=wrap;rounded=0;" vertex="1" parent="1">
          <mxGeometry x="772" y="95" width="40" height="20" as="geometry" />
        </mxCell>
        <mxCell id="lt1MG_Y_J4A6Yb-XciJY-232" value="" style="ellipse;whiteSpace=wrap;html=1;" vertex="1" parent="1">
          <mxGeometry x="767" y="840" width="113" height="30" as="geometry" />
        </mxCell>
        <mxCell id="lt1MG_Y_J4A6Yb-XciJY-233" value="num_trabajadores" style="text;html=1;strokeColor=none;fillColor=none;align=center;verticalAlign=middle;whiteSpace=wrap;rounded=0;" vertex="1" parent="1">
          <mxGeometry x="810" y="845" width="40" height="20" as="geometry" />
        </mxCell>
      </root>
    </mxGraphModel>
  </diagram>
</mxfile>
